<?xml version="1.0" standalone="no"?>
 <!DOCTYPE svg PUBLIC "-//W3C//DTD SVG 1.1//EN" 
 "http://www.w3.org/Graphics/SVG/1.1/DTD/svg11.dtd"> 
<svg
  xmlns:svg="http://www.w3.org/2000/svg"
  xmlns="http://www.w3.org/2000/svg"
  xmlns:xlink="http://www.w3.org/1999/xlink"
  version="1.1"
  width="28.3464mm" height="62.0268mm" viewBox="0.0000 0.0000 28.3464 62.0268">
<title>SVG Image created as EXL100_Cartridge.svg date 2025/04/01 13:42:31 </title>
  <desc>Image generated by Eeschema-SVG </desc>
<g style="fill:#000000; fill-opacity:1.0000;stroke:#000000; stroke-opacity:1.0000;
stroke-linecap:round; stroke-linejoin:round;"
 transform="translate(0 0) scale(1 1)">
</g>
<g style="fill:#FFFFC2; fill-opacity:1.0000; stroke:none;">
<rect x="6.553300" y="9.493000" width="15.240000" height="43.180000" rx="0.000000" />
</g>
<g style="fill:none; 
stroke:#840000; stroke-width:0.1524; stroke-opacity:1; 
stroke-linecap:round; stroke-linejoin:round;">
<rect x="6.553300" y="9.493000" width="15.240000" height="43.180000" rx="0.000000" />
<path d="M6.5533 13.3030
L2.7433 13.3030
" />
</g>
<g style="fill:none; 
stroke:#006464; stroke-width:0.1524; stroke-opacity:1; 
stroke-linecap:round; stroke-linejoin:round;">
<text x="7.0613" y="13.9380"
textLength="2.5013" font-size="1.6933" lengthAdjust="spacingAndGlyphs"
text-anchor="start" opacity="0" stroke-opacity="0">A0</text>
<g class="stroked-text"><desc>A0</desc>
<path d="M7.4034 13.5197
L8.0081 13.5197
" />
<path d="M7.2824 13.8825
L7.7057 12.6125
" />
<path d="M7.7057 12.6125
L8.1291 13.8825
" />
<path d="M8.7943 12.6125
L8.9153 12.6125
" />
<path d="M8.9153 12.6125
L9.0362 12.6730
" />
<path d="M9.0362 12.6730
L9.0967 12.7335
" />
<path d="M9.0967 12.7335
L9.1572 12.8544
" />
<path d="M9.1572 12.8544
L9.2177 13.0963
" />
<path d="M9.2177 13.0963
L9.2177 13.3987
" />
<path d="M9.2177 13.3987
L9.1572 13.6406
" />
<path d="M9.1572 13.6406
L9.0967 13.7616
" />
<path d="M9.0967 13.7616
L9.0362 13.8221
" />
<path d="M9.0362 13.8221
L8.9153 13.8825
" />
<path d="M8.9153 13.8825
L8.7943 13.8825
" />
<path d="M8.7943 13.8825
L8.6734 13.8221
" />
<path d="M8.6734 13.8221
L8.6129 13.7616
" />
<path d="M8.6129 13.7616
L8.5524 13.6406
" />
<path d="M8.5524 13.6406
L8.4920 13.3987
" />
<path d="M8.4920 13.3987
L8.4920 13.0963
" />
<path d="M8.4920 13.0963
L8.5524 12.8544
" />
<path d="M8.5524 12.8544
L8.6129 12.7335
" />
<path d="M8.6129 12.7335
L8.6734 12.6730
" />
<path d="M8.6734 12.6730
L8.7943 12.6125
" />
</g></g>
<g style="fill:none; 
stroke:#A90000; stroke-width:0.1524; stroke-opacity:1; 
stroke-linecap:round; stroke-linejoin:round;">
<text x="4.6483" y="13.0490"
textLength="3.7712" font-size="1.6933" lengthAdjust="spacingAndGlyphs"
text-anchor="middle" opacity="0" stroke-opacity="0">b10</text>
<g class="stroked-text"><desc>b10</desc>
<path d="M3.1666 12.8855
L3.1666 11.6155
" />
<path d="M3.1666 12.0993
L3.2876 12.0389
" />
<path d="M3.2876 12.0389
L3.5295 12.0389
" />
<path d="M3.5295 12.0389
L3.6504 12.0993
" />
<path d="M3.6504 12.0993
L3.7109 12.1598
" />
<path d="M3.7109 12.1598
L3.7714 12.2808
" />
<path d="M3.7714 12.2808
L3.7714 12.6436
" />
<path d="M3.7714 12.6436
L3.7109 12.7646
" />
<path d="M3.7109 12.7646
L3.6504 12.8251
" />
<path d="M3.6504 12.8251
L3.5295 12.8855
" />
<path d="M3.5295 12.8855
L3.2876 12.8855
" />
<path d="M3.2876 12.8855
L3.1666 12.8251
" />
<path d="M4.9809 12.8855
L4.2552 12.8855
" />
<path d="M4.6180 12.8855
L4.6180 11.6155
" />
<path d="M4.6180 11.6155
L4.4971 11.7970
" />
<path d="M4.4971 11.7970
L4.3761 11.9179
" />
<path d="M4.3761 11.9179
L4.2552 11.9784
" />
<path d="M5.7670 11.6155
L5.8880 11.6155
" />
<path d="M5.8880 11.6155
L6.0089 11.6760
" />
<path d="M6.0089 11.6760
L6.0694 11.7365
" />
<path d="M6.0694 11.7365
L6.1299 11.8574
" />
<path d="M6.1299 11.8574
L6.1904 12.0993
" />
<path d="M6.1904 12.0993
L6.1904 12.4017
" />
<path d="M6.1904 12.4017
L6.1299 12.6436
" />
<path d="M6.1299 12.6436
L6.0694 12.7646
" />
<path d="M6.0694 12.7646
L6.0089 12.8251
" />
<path d="M6.0089 12.8251
L5.8880 12.8855
" />
<path d="M5.8880 12.8855
L5.7670 12.8855
" />
<path d="M5.7670 12.8855
L5.6461 12.8251
" />
<path d="M5.6461 12.8251
L5.5856 12.7646
" />
<path d="M5.5856 12.7646
L5.5251 12.6436
" />
<path d="M5.5251 12.6436
L5.4647 12.4017
" />
<path d="M5.4647 12.4017
L5.4647 12.0993
" />
<path d="M5.4647 12.0993
L5.5251 11.8574
" />
<path d="M5.5251 11.8574
L5.5856 11.7365
" />
<path d="M5.5856 11.7365
L5.6461 11.6760
" />
<path d="M5.6461 11.6760
L5.7670 11.6155
" />
</g></g>
<g style="fill:none; 
stroke:#840000; stroke-width:0.1524; stroke-opacity:1; 
stroke-linecap:round; stroke-linejoin:round;">
<path d="M6.5533 15.8430
L2.7433 15.8430
" />
</g>
<g style="fill:none; 
stroke:#006464; stroke-width:0.1524; stroke-opacity:1; 
stroke-linecap:round; stroke-linejoin:round;">
<text x="7.0613" y="16.4780"
textLength="2.5013" font-size="1.6933" lengthAdjust="spacingAndGlyphs"
text-anchor="start" opacity="0" stroke-opacity="0">A1</text>
<g class="stroked-text"><desc>A1</desc>
<path d="M7.4034 16.0597
L8.0081 16.0597
" />
<path d="M7.2824 16.4225
L7.7057 15.1525
" />
<path d="M7.7057 15.1525
L8.1291 16.4225
" />
<path d="M9.2177 16.4225
L8.4920 16.4225
" />
<path d="M8.8548 16.4225
L8.8548 15.1525
" />
<path d="M8.8548 15.1525
L8.7339 15.3340
" />
<path d="M8.7339 15.3340
L8.6129 15.4549
" />
<path d="M8.6129 15.4549
L8.4920 15.5154
" />
</g></g>
<g style="fill:none; 
stroke:#A90000; stroke-width:0.1524; stroke-opacity:1; 
stroke-linecap:round; stroke-linejoin:round;">
<text x="4.6483" y="15.5890"
textLength="3.7712" font-size="1.6933" lengthAdjust="spacingAndGlyphs"
text-anchor="middle" opacity="0" stroke-opacity="0">a10</text>
<g class="stroked-text"><desc>a10</desc>
<path d="M3.7109 15.4255
L3.7109 14.7603
" />
<path d="M3.7109 14.7603
L3.6504 14.6393
" />
<path d="M3.6504 14.6393
L3.5295 14.5789
" />
<path d="M3.5295 14.5789
L3.2876 14.5789
" />
<path d="M3.2876 14.5789
L3.1666 14.6393
" />
<path d="M3.7109 15.3651
L3.5900 15.4255
" />
<path d="M3.5900 15.4255
L3.2876 15.4255
" />
<path d="M3.2876 15.4255
L3.1666 15.3651
" />
<path d="M3.1666 15.3651
L3.1062 15.2441
" />
<path d="M3.1062 15.2441
L3.1062 15.1231
" />
<path d="M3.1062 15.1231
L3.1666 15.0022
" />
<path d="M3.1666 15.0022
L3.2876 14.9417
" />
<path d="M3.2876 14.9417
L3.5900 14.9417
" />
<path d="M3.5900 14.9417
L3.7109 14.8812
" />
<path d="M4.9809 15.4255
L4.2552 15.4255
" />
<path d="M4.6180 15.4255
L4.6180 14.1555
" />
<path d="M4.6180 14.1555
L4.4971 14.3370
" />
<path d="M4.4971 14.3370
L4.3761 14.4579
" />
<path d="M4.3761 14.4579
L4.2552 14.5184
" />
<path d="M5.7670 14.1555
L5.8880 14.1555
" />
<path d="M5.8880 14.1555
L6.0089 14.2160
" />
<path d="M6.0089 14.2160
L6.0694 14.2765
" />
<path d="M6.0694 14.2765
L6.1299 14.3974
" />
<path d="M6.1299 14.3974
L6.1904 14.6393
" />
<path d="M6.1904 14.6393
L6.1904 14.9417
" />
<path d="M6.1904 14.9417
L6.1299 15.1836
" />
<path d="M6.1299 15.1836
L6.0694 15.3046
" />
<path d="M6.0694 15.3046
L6.0089 15.3651
" />
<path d="M6.0089 15.3651
L5.8880 15.4255
" />
<path d="M5.8880 15.4255
L5.7670 15.4255
" />
<path d="M5.7670 15.4255
L5.6461 15.3651
" />
<path d="M5.6461 15.3651
L5.5856 15.3046
" />
<path d="M5.5856 15.3046
L5.5251 15.1836
" />
<path d="M5.5251 15.1836
L5.4647 14.9417
" />
<path d="M5.4647 14.9417
L5.4647 14.6393
" />
<path d="M5.4647 14.6393
L5.5251 14.3974
" />
<path d="M5.5251 14.3974
L5.5856 14.2765
" />
<path d="M5.5856 14.2765
L5.6461 14.2160
" />
<path d="M5.6461 14.2160
L5.7670 14.1555
" />
</g></g>
<g style="fill:none; 
stroke:#840000; stroke-width:0.1524; stroke-opacity:1; 
stroke-linecap:round; stroke-linejoin:round;">
<path d="M6.5533 18.3830
L2.7433 18.3830
" />
</g>
<g style="fill:none; 
stroke:#006464; stroke-width:0.1524; stroke-opacity:1; 
stroke-linecap:round; stroke-linejoin:round;">
<text x="7.0613" y="19.0180"
textLength="2.5013" font-size="1.6933" lengthAdjust="spacingAndGlyphs"
text-anchor="start" opacity="0" stroke-opacity="0">A2</text>
<g class="stroked-text"><desc>A2</desc>
<path d="M7.4034 18.5997
L8.0081 18.5997
" />
<path d="M7.2824 18.9625
L7.7057 17.6925
" />
<path d="M7.7057 17.6925
L8.1291 18.9625
" />
<path d="M8.4920 17.8135
L8.5524 17.7530
" />
<path d="M8.5524 17.7530
L8.6734 17.6925
" />
<path d="M8.6734 17.6925
L8.9758 17.6925
" />
<path d="M8.9758 17.6925
L9.0967 17.7530
" />
<path d="M9.0967 17.7530
L9.1572 17.8135
" />
<path d="M9.1572 17.8135
L9.2177 17.9344
" />
<path d="M9.2177 17.9344
L9.2177 18.0554
" />
<path d="M9.2177 18.0554
L9.1572 18.2368
" />
<path d="M9.1572 18.2368
L8.4315 18.9625
" />
<path d="M8.4315 18.9625
L9.2177 18.9625
" />
</g></g>
<g style="fill:none; 
stroke:#A90000; stroke-width:0.1524; stroke-opacity:1; 
stroke-linecap:round; stroke-linejoin:round;">
<text x="4.6483" y="18.1290"
textLength="2.5617" font-size="1.6933" lengthAdjust="spacingAndGlyphs"
text-anchor="middle" opacity="0" stroke-opacity="0">b9</text>
<g class="stroked-text"><desc>b9</desc>
<path d="M3.7714 17.9655
L3.7714 16.6955
" />
<path d="M3.7714 17.1793
L3.8924 17.1189
" />
<path d="M3.8924 17.1189
L4.1343 17.1189
" />
<path d="M4.1343 17.1189
L4.2552 17.1793
" />
<path d="M4.2552 17.1793
L4.3157 17.2398
" />
<path d="M4.3157 17.2398
L4.3762 17.3608
" />
<path d="M4.3762 17.3608
L4.3762 17.7236
" />
<path d="M4.3762 17.7236
L4.3157 17.8446
" />
<path d="M4.3157 17.8446
L4.2552 17.9051
" />
<path d="M4.2552 17.9051
L4.1343 17.9655
" />
<path d="M4.1343 17.9655
L3.8924 17.9655
" />
<path d="M3.8924 17.9655
L3.7714 17.9051
" />
<path d="M4.9809 17.9655
L5.2228 17.9655
" />
<path d="M5.2228 17.9655
L5.3438 17.9051
" />
<path d="M5.3438 17.9051
L5.4042 17.8446
" />
<path d="M5.4042 17.8446
L5.5252 17.6631
" />
<path d="M5.5252 17.6631
L5.5857 17.4212
" />
<path d="M5.5857 17.4212
L5.5857 16.9374
" />
<path d="M5.5857 16.9374
L5.5252 16.8165
" />
<path d="M5.5252 16.8165
L5.4647 16.7560
" />
<path d="M5.4647 16.7560
L5.3438 16.6955
" />
<path d="M5.3438 16.6955
L5.1019 16.6955
" />
<path d="M5.1019 16.6955
L4.9809 16.7560
" />
<path d="M4.9809 16.7560
L4.9204 16.8165
" />
<path d="M4.9204 16.8165
L4.8600 16.9374
" />
<path d="M4.8600 16.9374
L4.8600 17.2398
" />
<path d="M4.8600 17.2398
L4.9204 17.3608
" />
<path d="M4.9204 17.3608
L4.9809 17.4212
" />
<path d="M4.9809 17.4212
L5.1019 17.4817
" />
<path d="M5.1019 17.4817
L5.3438 17.4817
" />
<path d="M5.3438 17.4817
L5.4647 17.4212
" />
<path d="M5.4647 17.4212
L5.5252 17.3608
" />
<path d="M5.5252 17.3608
L5.5857 17.2398
" />
</g></g>
<g style="fill:none; 
stroke:#840000; stroke-width:0.1524; stroke-opacity:1; 
stroke-linecap:round; stroke-linejoin:round;">
<path d="M6.5533 20.9230
L2.7433 20.9230
" />
</g>
<g style="fill:none; 
stroke:#006464; stroke-width:0.1524; stroke-opacity:1; 
stroke-linecap:round; stroke-linejoin:round;">
<text x="7.0613" y="21.5580"
textLength="2.5013" font-size="1.6933" lengthAdjust="spacingAndGlyphs"
text-anchor="start" opacity="0" stroke-opacity="0">A3</text>
<g class="stroked-text"><desc>A3</desc>
<path d="M7.4034 21.1397
L8.0081 21.1397
" />
<path d="M7.2824 21.5025
L7.7057 20.2325
" />
<path d="M7.7057 20.2325
L8.1291 21.5025
" />
<path d="M8.4315 20.2325
L9.2177 20.2325
" />
<path d="M9.2177 20.2325
L8.7943 20.7163
" />
<path d="M8.7943 20.7163
L8.9758 20.7163
" />
<path d="M8.9758 20.7163
L9.0967 20.7768
" />
<path d="M9.0967 20.7768
L9.1572 20.8373
" />
<path d="M9.1572 20.8373
L9.2177 20.9582
" />
<path d="M9.2177 20.9582
L9.2177 21.2606
" />
<path d="M9.2177 21.2606
L9.1572 21.3816
" />
<path d="M9.1572 21.3816
L9.0967 21.4421
" />
<path d="M9.0967 21.4421
L8.9758 21.5025
" />
<path d="M8.9758 21.5025
L8.6129 21.5025
" />
<path d="M8.6129 21.5025
L8.4920 21.4421
" />
<path d="M8.4920 21.4421
L8.4315 21.3816
" />
</g></g>
<g style="fill:none; 
stroke:#A90000; stroke-width:0.1524; stroke-opacity:1; 
stroke-linecap:round; stroke-linejoin:round;">
<text x="4.6483" y="20.6690"
textLength="2.5617" font-size="1.6933" lengthAdjust="spacingAndGlyphs"
text-anchor="middle" opacity="0" stroke-opacity="0">a9</text>
<g class="stroked-text"><desc>a9</desc>
<path d="M4.3157 20.5055
L4.3157 19.8403
" />
<path d="M4.3157 19.8403
L4.2552 19.7193
" />
<path d="M4.2552 19.7193
L4.1343 19.6589
" />
<path d="M4.1343 19.6589
L3.8924 19.6589
" />
<path d="M3.8924 19.6589
L3.7714 19.7193
" />
<path d="M4.3157 20.4451
L4.1948 20.5055
" />
<path d="M4.1948 20.5055
L3.8924 20.5055
" />
<path d="M3.8924 20.5055
L3.7714 20.4451
" />
<path d="M3.7714 20.4451
L3.7110 20.3241
" />
<path d="M3.7110 20.3241
L3.7110 20.2031
" />
<path d="M3.7110 20.2031
L3.7714 20.0822
" />
<path d="M3.7714 20.0822
L3.8924 20.0217
" />
<path d="M3.8924 20.0217
L4.1948 20.0217
" />
<path d="M4.1948 20.0217
L4.3157 19.9612
" />
<path d="M4.9809 20.5055
L5.2228 20.5055
" />
<path d="M5.2228 20.5055
L5.3438 20.4451
" />
<path d="M5.3438 20.4451
L5.4042 20.3846
" />
<path d="M5.4042 20.3846
L5.5252 20.2031
" />
<path d="M5.5252 20.2031
L5.5857 19.9612
" />
<path d="M5.5857 19.9612
L5.5857 19.4774
" />
<path d="M5.5857 19.4774
L5.5252 19.3565
" />
<path d="M5.5252 19.3565
L5.4647 19.2960
" />
<path d="M5.4647 19.2960
L5.3438 19.2355
" />
<path d="M5.3438 19.2355
L5.1019 19.2355
" />
<path d="M5.1019 19.2355
L4.9809 19.2960
" />
<path d="M4.9809 19.2960
L4.9204 19.3565
" />
<path d="M4.9204 19.3565
L4.8600 19.4774
" />
<path d="M4.8600 19.4774
L4.8600 19.7798
" />
<path d="M4.8600 19.7798
L4.9204 19.9008
" />
<path d="M4.9204 19.9008
L4.9809 19.9612
" />
<path d="M4.9809 19.9612
L5.1019 20.0217
" />
<path d="M5.1019 20.0217
L5.3438 20.0217
" />
<path d="M5.3438 20.0217
L5.4647 19.9612
" />
<path d="M5.4647 19.9612
L5.5252 19.9008
" />
<path d="M5.5252 19.9008
L5.5857 19.7798
" />
</g></g>
<g style="fill:none; 
stroke:#840000; stroke-width:0.1524; stroke-opacity:1; 
stroke-linecap:round; stroke-linejoin:round;">
<path d="M6.5533 23.4630
L2.7433 23.4630
" />
</g>
<g style="fill:none; 
stroke:#006464; stroke-width:0.1524; stroke-opacity:1; 
stroke-linecap:round; stroke-linejoin:round;">
<text x="7.0613" y="24.0980"
textLength="2.5013" font-size="1.6933" lengthAdjust="spacingAndGlyphs"
text-anchor="start" opacity="0" stroke-opacity="0">A4</text>
<g class="stroked-text"><desc>A4</desc>
<path d="M7.4034 23.6797
L8.0081 23.6797
" />
<path d="M7.2824 24.0425
L7.7057 22.7725
" />
<path d="M7.7057 22.7725
L8.1291 24.0425
" />
<path d="M9.0967 23.1959
L9.0967 24.0425
" />
<path d="M8.7943 22.7121
L8.4920 23.6192
" />
<path d="M8.4920 23.6192
L9.2781 23.6192
" />
</g></g>
<g style="fill:none; 
stroke:#A90000; stroke-width:0.1524; stroke-opacity:1; 
stroke-linecap:round; stroke-linejoin:round;">
<text x="4.6483" y="23.2090"
textLength="2.5617" font-size="1.6933" lengthAdjust="spacingAndGlyphs"
text-anchor="middle" opacity="0" stroke-opacity="0">b7</text>
<g class="stroked-text"><desc>b7</desc>
<path d="M3.7714 23.0455
L3.7714 21.7755
" />
<path d="M3.7714 22.2593
L3.8924 22.1989
" />
<path d="M3.8924 22.1989
L4.1343 22.1989
" />
<path d="M4.1343 22.1989
L4.2552 22.2593
" />
<path d="M4.2552 22.2593
L4.3157 22.3198
" />
<path d="M4.3157 22.3198
L4.3762 22.4408
" />
<path d="M4.3762 22.4408
L4.3762 22.8036
" />
<path d="M4.3762 22.8036
L4.3157 22.9246
" />
<path d="M4.3157 22.9246
L4.2552 22.9851
" />
<path d="M4.2552 22.9851
L4.1343 23.0455
" />
<path d="M4.1343 23.0455
L3.8924 23.0455
" />
<path d="M3.8924 23.0455
L3.7714 22.9851
" />
<path d="M4.7995 21.7755
L5.6461 21.7755
" />
<path d="M5.6461 21.7755
L5.1019 23.0455
" />
</g></g>
<g style="fill:none; 
stroke:#840000; stroke-width:0.1524; stroke-opacity:1; 
stroke-linecap:round; stroke-linejoin:round;">
<path d="M6.5533 26.0030
L2.7433 26.0030
" />
</g>
<g style="fill:none; 
stroke:#006464; stroke-width:0.1524; stroke-opacity:1; 
stroke-linecap:round; stroke-linejoin:round;">
<text x="7.0613" y="26.6380"
textLength="2.5013" font-size="1.6933" lengthAdjust="spacingAndGlyphs"
text-anchor="start" opacity="0" stroke-opacity="0">A5</text>
<g class="stroked-text"><desc>A5</desc>
<path d="M7.4034 26.2197
L8.0081 26.2197
" />
<path d="M7.2824 26.5825
L7.7057 25.3125
" />
<path d="M7.7057 25.3125
L8.1291 26.5825
" />
<path d="M9.1572 25.3125
L8.5524 25.3125
" />
<path d="M8.5524 25.3125
L8.4920 25.9173
" />
<path d="M8.4920 25.9173
L8.5524 25.8568
" />
<path d="M8.5524 25.8568
L8.6734 25.7963
" />
<path d="M8.6734 25.7963
L8.9758 25.7963
" />
<path d="M8.9758 25.7963
L9.0967 25.8568
" />
<path d="M9.0967 25.8568
L9.1572 25.9173
" />
<path d="M9.1572 25.9173
L9.2177 26.0382
" />
<path d="M9.2177 26.0382
L9.2177 26.3406
" />
<path d="M9.2177 26.3406
L9.1572 26.4616
" />
<path d="M9.1572 26.4616
L9.0967 26.5221
" />
<path d="M9.0967 26.5221
L8.9758 26.5825
" />
<path d="M8.9758 26.5825
L8.6734 26.5825
" />
<path d="M8.6734 26.5825
L8.5524 26.5221
" />
<path d="M8.5524 26.5221
L8.4920 26.4616
" />
</g></g>
<g style="fill:none; 
stroke:#A90000; stroke-width:0.1524; stroke-opacity:1; 
stroke-linecap:round; stroke-linejoin:round;">
<text x="4.6483" y="25.7490"
textLength="2.5617" font-size="1.6933" lengthAdjust="spacingAndGlyphs"
text-anchor="middle" opacity="0" stroke-opacity="0">a6</text>
<g class="stroked-text"><desc>a6</desc>
<path d="M4.3157 25.5855
L4.3157 24.9203
" />
<path d="M4.3157 24.9203
L4.2552 24.7993
" />
<path d="M4.2552 24.7993
L4.1343 24.7389
" />
<path d="M4.1343 24.7389
L3.8924 24.7389
" />
<path d="M3.8924 24.7389
L3.7714 24.7993
" />
<path d="M4.3157 25.5251
L4.1948 25.5855
" />
<path d="M4.1948 25.5855
L3.8924 25.5855
" />
<path d="M3.8924 25.5855
L3.7714 25.5251
" />
<path d="M3.7714 25.5251
L3.7110 25.4041
" />
<path d="M3.7110 25.4041
L3.7110 25.2831
" />
<path d="M3.7110 25.2831
L3.7714 25.1622
" />
<path d="M3.7714 25.1622
L3.8924 25.1017
" />
<path d="M3.8924 25.1017
L4.1948 25.1017
" />
<path d="M4.1948 25.1017
L4.3157 25.0412
" />
<path d="M5.4647 24.3155
L5.2228 24.3155
" />
<path d="M5.2228 24.3155
L5.1019 24.3760
" />
<path d="M5.1019 24.3760
L5.0414 24.4365
" />
<path d="M5.0414 24.4365
L4.9204 24.6179
" />
<path d="M4.9204 24.6179
L4.8600 24.8598
" />
<path d="M4.8600 24.8598
L4.8600 25.3436
" />
<path d="M4.8600 25.3436
L4.9204 25.4646
" />
<path d="M4.9204 25.4646
L4.9809 25.5251
" />
<path d="M4.9809 25.5251
L5.1019 25.5855
" />
<path d="M5.1019 25.5855
L5.3438 25.5855
" />
<path d="M5.3438 25.5855
L5.4647 25.5251
" />
<path d="M5.4647 25.5251
L5.5252 25.4646
" />
<path d="M5.5252 25.4646
L5.5857 25.3436
" />
<path d="M5.5857 25.3436
L5.5857 25.0412
" />
<path d="M5.5857 25.0412
L5.5252 24.9203
" />
<path d="M5.5252 24.9203
L5.4647 24.8598
" />
<path d="M5.4647 24.8598
L5.3438 24.7993
" />
<path d="M5.3438 24.7993
L5.1019 24.7993
" />
<path d="M5.1019 24.7993
L4.9809 24.8598
" />
<path d="M4.9809 24.8598
L4.9204 24.9203
" />
<path d="M4.9204 24.9203
L4.8600 25.0412
" />
</g></g>
<g style="fill:none; 
stroke:#840000; stroke-width:0.1524; stroke-opacity:1; 
stroke-linecap:round; stroke-linejoin:round;">
<path d="M6.5533 28.5430
L2.7433 28.5430
" />
</g>
<g style="fill:none; 
stroke:#006464; stroke-width:0.1524; stroke-opacity:1; 
stroke-linecap:round; stroke-linejoin:round;">
<text x="7.0613" y="29.1780"
textLength="2.5013" font-size="1.6933" lengthAdjust="spacingAndGlyphs"
text-anchor="start" opacity="0" stroke-opacity="0">A6</text>
<g class="stroked-text"><desc>A6</desc>
<path d="M7.4034 28.7597
L8.0081 28.7597
" />
<path d="M7.2824 29.1225
L7.7057 27.8525
" />
<path d="M7.7057 27.8525
L8.1291 29.1225
" />
<path d="M9.0967 27.8525
L8.8548 27.8525
" />
<path d="M8.8548 27.8525
L8.7339 27.9130
" />
<path d="M8.7339 27.9130
L8.6734 27.9735
" />
<path d="M8.6734 27.9735
L8.5524 28.1549
" />
<path d="M8.5524 28.1549
L8.4920 28.3968
" />
<path d="M8.4920 28.3968
L8.4920 28.8806
" />
<path d="M8.4920 28.8806
L8.5524 29.0016
" />
<path d="M8.5524 29.0016
L8.6129 29.0621
" />
<path d="M8.6129 29.0621
L8.7339 29.1225
" />
<path d="M8.7339 29.1225
L8.9758 29.1225
" />
<path d="M8.9758 29.1225
L9.0967 29.0621
" />
<path d="M9.0967 29.0621
L9.1572 29.0016
" />
<path d="M9.1572 29.0016
L9.2177 28.8806
" />
<path d="M9.2177 28.8806
L9.2177 28.5782
" />
<path d="M9.2177 28.5782
L9.1572 28.4573
" />
<path d="M9.1572 28.4573
L9.0967 28.3968
" />
<path d="M9.0967 28.3968
L8.9758 28.3363
" />
<path d="M8.9758 28.3363
L8.7339 28.3363
" />
<path d="M8.7339 28.3363
L8.6129 28.3968
" />
<path d="M8.6129 28.3968
L8.5524 28.4573
" />
<path d="M8.5524 28.4573
L8.4920 28.5782
" />
</g></g>
<g style="fill:none; 
stroke:#A90000; stroke-width:0.1524; stroke-opacity:1; 
stroke-linecap:round; stroke-linejoin:round;">
<text x="4.6483" y="28.2890"
textLength="2.5617" font-size="1.6933" lengthAdjust="spacingAndGlyphs"
text-anchor="middle" opacity="0" stroke-opacity="0">b6</text>
<g class="stroked-text"><desc>b6</desc>
<path d="M3.7714 28.1255
L3.7714 26.8555
" />
<path d="M3.7714 27.3393
L3.8924 27.2789
" />
<path d="M3.8924 27.2789
L4.1343 27.2789
" />
<path d="M4.1343 27.2789
L4.2552 27.3393
" />
<path d="M4.2552 27.3393
L4.3157 27.3998
" />
<path d="M4.3157 27.3998
L4.3762 27.5208
" />
<path d="M4.3762 27.5208
L4.3762 27.8836
" />
<path d="M4.3762 27.8836
L4.3157 28.0046
" />
<path d="M4.3157 28.0046
L4.2552 28.0651
" />
<path d="M4.2552 28.0651
L4.1343 28.1255
" />
<path d="M4.1343 28.1255
L3.8924 28.1255
" />
<path d="M3.8924 28.1255
L3.7714 28.0651
" />
<path d="M5.4647 26.8555
L5.2228 26.8555
" />
<path d="M5.2228 26.8555
L5.1019 26.9160
" />
<path d="M5.1019 26.9160
L5.0414 26.9765
" />
<path d="M5.0414 26.9765
L4.9204 27.1579
" />
<path d="M4.9204 27.1579
L4.8600 27.3998
" />
<path d="M4.8600 27.3998
L4.8600 27.8836
" />
<path d="M4.8600 27.8836
L4.9204 28.0046
" />
<path d="M4.9204 28.0046
L4.9809 28.0651
" />
<path d="M4.9809 28.0651
L5.1019 28.1255
" />
<path d="M5.1019 28.1255
L5.3438 28.1255
" />
<path d="M5.3438 28.1255
L5.4647 28.0651
" />
<path d="M5.4647 28.0651
L5.5252 28.0046
" />
<path d="M5.5252 28.0046
L5.5857 27.8836
" />
<path d="M5.5857 27.8836
L5.5857 27.5812
" />
<path d="M5.5857 27.5812
L5.5252 27.4603
" />
<path d="M5.5252 27.4603
L5.4647 27.3998
" />
<path d="M5.4647 27.3998
L5.3438 27.3393
" />
<path d="M5.3438 27.3393
L5.1019 27.3393
" />
<path d="M5.1019 27.3393
L4.9809 27.3998
" />
<path d="M4.9809 27.3998
L4.9204 27.4603
" />
<path d="M4.9204 27.4603
L4.8600 27.5812
" />
</g></g>
<g style="fill:none; 
stroke:#840000; stroke-width:0.1524; stroke-opacity:1; 
stroke-linecap:round; stroke-linejoin:round;">
<path d="M6.5533 31.0830
L2.7433 31.0830
" />
</g>
<g style="fill:none; 
stroke:#006464; stroke-width:0.1524; stroke-opacity:1; 
stroke-linecap:round; stroke-linejoin:round;">
<text x="7.0613" y="31.7180"
textLength="2.5013" font-size="1.6933" lengthAdjust="spacingAndGlyphs"
text-anchor="start" opacity="0" stroke-opacity="0">A7</text>
<g class="stroked-text"><desc>A7</desc>
<path d="M7.4034 31.2997
L8.0081 31.2997
" />
<path d="M7.2824 31.6625
L7.7057 30.3925
" />
<path d="M7.7057 30.3925
L8.1291 31.6625
" />
<path d="M8.4315 30.3925
L9.2781 30.3925
" />
<path d="M9.2781 30.3925
L8.7339 31.6625
" />
</g></g>
<g style="fill:none; 
stroke:#A90000; stroke-width:0.1524; stroke-opacity:1; 
stroke-linecap:round; stroke-linejoin:round;">
<text x="4.6483" y="30.8290"
textLength="2.5617" font-size="1.6933" lengthAdjust="spacingAndGlyphs"
text-anchor="middle" opacity="0" stroke-opacity="0">a5</text>
<g class="stroked-text"><desc>a5</desc>
<path d="M4.3157 30.6655
L4.3157 30.0003
" />
<path d="M4.3157 30.0003
L4.2552 29.8793
" />
<path d="M4.2552 29.8793
L4.1343 29.8189
" />
<path d="M4.1343 29.8189
L3.8924 29.8189
" />
<path d="M3.8924 29.8189
L3.7714 29.8793
" />
<path d="M4.3157 30.6051
L4.1948 30.6655
" />
<path d="M4.1948 30.6655
L3.8924 30.6655
" />
<path d="M3.8924 30.6655
L3.7714 30.6051
" />
<path d="M3.7714 30.6051
L3.7110 30.4841
" />
<path d="M3.7110 30.4841
L3.7110 30.3631
" />
<path d="M3.7110 30.3631
L3.7714 30.2422
" />
<path d="M3.7714 30.2422
L3.8924 30.1817
" />
<path d="M3.8924 30.1817
L4.1948 30.1817
" />
<path d="M4.1948 30.1817
L4.3157 30.1212
" />
<path d="M5.5252 29.3955
L4.9204 29.3955
" />
<path d="M4.9204 29.3955
L4.8600 30.0003
" />
<path d="M4.8600 30.0003
L4.9204 29.9398
" />
<path d="M4.9204 29.9398
L5.0414 29.8793
" />
<path d="M5.0414 29.8793
L5.3438 29.8793
" />
<path d="M5.3438 29.8793
L5.4647 29.9398
" />
<path d="M5.4647 29.9398
L5.5252 30.0003
" />
<path d="M5.5252 30.0003
L5.5857 30.1212
" />
<path d="M5.5857 30.1212
L5.5857 30.4236
" />
<path d="M5.5857 30.4236
L5.5252 30.5446
" />
<path d="M5.5252 30.5446
L5.4647 30.6051
" />
<path d="M5.4647 30.6051
L5.3438 30.6655
" />
<path d="M5.3438 30.6655
L5.0414 30.6655
" />
<path d="M5.0414 30.6655
L4.9204 30.6051
" />
<path d="M4.9204 30.6051
L4.8600 30.5446
" />
</g></g>
<g style="fill:none; 
stroke:#840000; stroke-width:0.1524; stroke-opacity:1; 
stroke-linecap:round; stroke-linejoin:round;">
<path d="M6.5533 33.6230
L2.7433 33.6230
" />
</g>
<g style="fill:none; 
stroke:#006464; stroke-width:0.1524; stroke-opacity:1; 
stroke-linecap:round; stroke-linejoin:round;">
<text x="7.0613" y="34.2580"
textLength="2.5013" font-size="1.6933" lengthAdjust="spacingAndGlyphs"
text-anchor="start" opacity="0" stroke-opacity="0">A8</text>
<g class="stroked-text"><desc>A8</desc>
<path d="M7.4034 33.8397
L8.0081 33.8397
" />
<path d="M7.2824 34.2025
L7.7057 32.9325
" />
<path d="M7.7057 32.9325
L8.1291 34.2025
" />
<path d="M8.7339 33.4768
L8.6129 33.4163
" />
<path d="M8.6129 33.4163
L8.5524 33.3559
" />
<path d="M8.5524 33.3559
L8.4920 33.2349
" />
<path d="M8.4920 33.2349
L8.4920 33.1744
" />
<path d="M8.4920 33.1744
L8.5524 33.0535
" />
<path d="M8.5524 33.0535
L8.6129 32.9930
" />
<path d="M8.6129 32.9930
L8.7339 32.9325
" />
<path d="M8.7339 32.9325
L8.9758 32.9325
" />
<path d="M8.9758 32.9325
L9.0967 32.9930
" />
<path d="M9.0967 32.9930
L9.1572 33.0535
" />
<path d="M9.1572 33.0535
L9.2177 33.1744
" />
<path d="M9.2177 33.1744
L9.2177 33.2349
" />
<path d="M9.2177 33.2349
L9.1572 33.3559
" />
<path d="M9.1572 33.3559
L9.0967 33.4163
" />
<path d="M9.0967 33.4163
L8.9758 33.4768
" />
<path d="M8.9758 33.4768
L8.7339 33.4768
" />
<path d="M8.7339 33.4768
L8.6129 33.5373
" />
<path d="M8.6129 33.5373
L8.5524 33.5978
" />
<path d="M8.5524 33.5978
L8.4920 33.7187
" />
<path d="M8.4920 33.7187
L8.4920 33.9606
" />
<path d="M8.4920 33.9606
L8.5524 34.0816
" />
<path d="M8.5524 34.0816
L8.6129 34.1421
" />
<path d="M8.6129 34.1421
L8.7339 34.2025
" />
<path d="M8.7339 34.2025
L8.9758 34.2025
" />
<path d="M8.9758 34.2025
L9.0967 34.1421
" />
<path d="M9.0967 34.1421
L9.1572 34.0816
" />
<path d="M9.1572 34.0816
L9.2177 33.9606
" />
<path d="M9.2177 33.9606
L9.2177 33.7187
" />
<path d="M9.2177 33.7187
L9.1572 33.5978
" />
<path d="M9.1572 33.5978
L9.0967 33.5373
" />
<path d="M9.0967 33.5373
L8.9758 33.4768
" />
</g></g>
<g style="fill:none; 
stroke:#A90000; stroke-width:0.1524; stroke-opacity:1; 
stroke-linecap:round; stroke-linejoin:round;">
<text x="4.6483" y="33.3690"
textLength="2.5617" font-size="1.6933" lengthAdjust="spacingAndGlyphs"
text-anchor="middle" opacity="0" stroke-opacity="0">b5</text>
<g class="stroked-text"><desc>b5</desc>
<path d="M3.7714 33.2055
L3.7714 31.9355
" />
<path d="M3.7714 32.4193
L3.8924 32.3589
" />
<path d="M3.8924 32.3589
L4.1343 32.3589
" />
<path d="M4.1343 32.3589
L4.2552 32.4193
" />
<path d="M4.2552 32.4193
L4.3157 32.4798
" />
<path d="M4.3157 32.4798
L4.3762 32.6008
" />
<path d="M4.3762 32.6008
L4.3762 32.9636
" />
<path d="M4.3762 32.9636
L4.3157 33.0846
" />
<path d="M4.3157 33.0846
L4.2552 33.1451
" />
<path d="M4.2552 33.1451
L4.1343 33.2055
" />
<path d="M4.1343 33.2055
L3.8924 33.2055
" />
<path d="M3.8924 33.2055
L3.7714 33.1451
" />
<path d="M5.5252 31.9355
L4.9204 31.9355
" />
<path d="M4.9204 31.9355
L4.8600 32.5403
" />
<path d="M4.8600 32.5403
L4.9204 32.4798
" />
<path d="M4.9204 32.4798
L5.0414 32.4193
" />
<path d="M5.0414 32.4193
L5.3438 32.4193
" />
<path d="M5.3438 32.4193
L5.4647 32.4798
" />
<path d="M5.4647 32.4798
L5.5252 32.5403
" />
<path d="M5.5252 32.5403
L5.5857 32.6612
" />
<path d="M5.5857 32.6612
L5.5857 32.9636
" />
<path d="M5.5857 32.9636
L5.5252 33.0846
" />
<path d="M5.5252 33.0846
L5.4647 33.1451
" />
<path d="M5.4647 33.1451
L5.3438 33.2055
" />
<path d="M5.3438 33.2055
L5.0414 33.2055
" />
<path d="M5.0414 33.2055
L4.9204 33.1451
" />
<path d="M4.9204 33.1451
L4.8600 33.0846
" />
</g></g>
<g style="fill:none; 
stroke:#840000; stroke-width:0.1524; stroke-opacity:1; 
stroke-linecap:round; stroke-linejoin:round;">
<path d="M6.5533 36.1630
L2.7433 36.1630
" />
</g>
<g style="fill:none; 
stroke:#006464; stroke-width:0.1524; stroke-opacity:1; 
stroke-linecap:round; stroke-linejoin:round;">
<text x="7.0613" y="36.7980"
textLength="2.5013" font-size="1.6933" lengthAdjust="spacingAndGlyphs"
text-anchor="start" opacity="0" stroke-opacity="0">A9</text>
<g class="stroked-text"><desc>A9</desc>
<path d="M7.4034 36.3797
L8.0081 36.3797
" />
<path d="M7.2824 36.7425
L7.7057 35.4725
" />
<path d="M7.7057 35.4725
L8.1291 36.7425
" />
<path d="M8.6129 36.7425
L8.8548 36.7425
" />
<path d="M8.8548 36.7425
L8.9758 36.6821
" />
<path d="M8.9758 36.6821
L9.0362 36.6216
" />
<path d="M9.0362 36.6216
L9.1572 36.4401
" />
<path d="M9.1572 36.4401
L9.2177 36.1982
" />
<path d="M9.2177 36.1982
L9.2177 35.7144
" />
<path d="M9.2177 35.7144
L9.1572 35.5935
" />
<path d="M9.1572 35.5935
L9.0967 35.5330
" />
<path d="M9.0967 35.5330
L8.9758 35.4725
" />
<path d="M8.9758 35.4725
L8.7339 35.4725
" />
<path d="M8.7339 35.4725
L8.6129 35.5330
" />
<path d="M8.6129 35.5330
L8.5524 35.5935
" />
<path d="M8.5524 35.5935
L8.4920 35.7144
" />
<path d="M8.4920 35.7144
L8.4920 36.0168
" />
<path d="M8.4920 36.0168
L8.5524 36.1378
" />
<path d="M8.5524 36.1378
L8.6129 36.1982
" />
<path d="M8.6129 36.1982
L8.7339 36.2587
" />
<path d="M8.7339 36.2587
L8.9758 36.2587
" />
<path d="M8.9758 36.2587
L9.0967 36.1982
" />
<path d="M9.0967 36.1982
L9.1572 36.1378
" />
<path d="M9.1572 36.1378
L9.2177 36.0168
" />
</g></g>
<g style="fill:none; 
stroke:#A90000; stroke-width:0.1524; stroke-opacity:1; 
stroke-linecap:round; stroke-linejoin:round;">
<text x="4.6483" y="35.9090"
textLength="2.5617" font-size="1.6933" lengthAdjust="spacingAndGlyphs"
text-anchor="middle" opacity="0" stroke-opacity="0">a4</text>
<g class="stroked-text"><desc>a4</desc>
<path d="M4.3157 35.7455
L4.3157 35.0803
" />
<path d="M4.3157 35.0803
L4.2552 34.9593
" />
<path d="M4.2552 34.9593
L4.1343 34.8989
" />
<path d="M4.1343 34.8989
L3.8924 34.8989
" />
<path d="M3.8924 34.8989
L3.7714 34.9593
" />
<path d="M4.3157 35.6851
L4.1948 35.7455
" />
<path d="M4.1948 35.7455
L3.8924 35.7455
" />
<path d="M3.8924 35.7455
L3.7714 35.6851
" />
<path d="M3.7714 35.6851
L3.7110 35.5641
" />
<path d="M3.7110 35.5641
L3.7110 35.4431
" />
<path d="M3.7110 35.4431
L3.7714 35.3222
" />
<path d="M3.7714 35.3222
L3.8924 35.2617
" />
<path d="M3.8924 35.2617
L4.1948 35.2617
" />
<path d="M4.1948 35.2617
L4.3157 35.2012
" />
<path d="M5.4647 34.8989
L5.4647 35.7455
" />
<path d="M5.1623 34.4151
L4.8600 35.3222
" />
<path d="M4.8600 35.3222
L5.6461 35.3222
" />
</g></g>
<g style="fill:none; 
stroke:#840000; stroke-width:0.1524; stroke-opacity:1; 
stroke-linecap:round; stroke-linejoin:round;">
<path d="M6.5533 38.7030
L2.7433 38.7030
" />
</g>
<g style="fill:none; 
stroke:#006464; stroke-width:0.1524; stroke-opacity:1; 
stroke-linecap:round; stroke-linejoin:round;">
<text x="7.0613" y="39.3380"
textLength="3.7108" font-size="1.6933" lengthAdjust="spacingAndGlyphs"
text-anchor="start" opacity="0" stroke-opacity="0">A10</text>
<g class="stroked-text"><desc>A10</desc>
<path d="M7.4034 38.9197
L8.0081 38.9197
" />
<path d="M7.2824 39.2825
L7.7057 38.0125
" />
<path d="M7.7057 38.0125
L8.1291 39.2825
" />
<path d="M9.2177 39.2825
L8.4920 39.2825
" />
<path d="M8.8548 39.2825
L8.8548 38.0125
" />
<path d="M8.8548 38.0125
L8.7339 38.1940
" />
<path d="M8.7339 38.1940
L8.6129 38.3149
" />
<path d="M8.6129 38.3149
L8.4920 38.3754
" />
<path d="M10.0038 38.0125
L10.1248 38.0125
" />
<path d="M10.1248 38.0125
L10.2457 38.0730
" />
<path d="M10.2457 38.0730
L10.3062 38.1335
" />
<path d="M10.3062 38.1335
L10.3667 38.2544
" />
<path d="M10.3667 38.2544
L10.4272 38.4963
" />
<path d="M10.4272 38.4963
L10.4272 38.7987
" />
<path d="M10.4272 38.7987
L10.3667 39.0406
" />
<path d="M10.3667 39.0406
L10.3062 39.1616
" />
<path d="M10.3062 39.1616
L10.2457 39.2221
" />
<path d="M10.2457 39.2221
L10.1248 39.2825
" />
<path d="M10.1248 39.2825
L10.0038 39.2825
" />
<path d="M10.0038 39.2825
L9.8829 39.2221
" />
<path d="M9.8829 39.2221
L9.8224 39.1616
" />
<path d="M9.8224 39.1616
L9.7619 39.0406
" />
<path d="M9.7619 39.0406
L9.7015 38.7987
" />
<path d="M9.7015 38.7987
L9.7015 38.4963
" />
<path d="M9.7015 38.4963
L9.7619 38.2544
" />
<path d="M9.7619 38.2544
L9.8224 38.1335
" />
<path d="M9.8224 38.1335
L9.8829 38.0730
" />
<path d="M9.8829 38.0730
L10.0038 38.0125
" />
</g></g>
<g style="fill:none; 
stroke:#A90000; stroke-width:0.1524; stroke-opacity:1; 
stroke-linecap:round; stroke-linejoin:round;">
<text x="4.6483" y="38.4490"
textLength="2.5617" font-size="1.6933" lengthAdjust="spacingAndGlyphs"
text-anchor="middle" opacity="0" stroke-opacity="0">b4</text>
<g class="stroked-text"><desc>b4</desc>
<path d="M3.7714 38.2855
L3.7714 37.0155
" />
<path d="M3.7714 37.4993
L3.8924 37.4389
" />
<path d="M3.8924 37.4389
L4.1343 37.4389
" />
<path d="M4.1343 37.4389
L4.2552 37.4993
" />
<path d="M4.2552 37.4993
L4.3157 37.5598
" />
<path d="M4.3157 37.5598
L4.3762 37.6808
" />
<path d="M4.3762 37.6808
L4.3762 38.0436
" />
<path d="M4.3762 38.0436
L4.3157 38.1646
" />
<path d="M4.3157 38.1646
L4.2552 38.2251
" />
<path d="M4.2552 38.2251
L4.1343 38.2855
" />
<path d="M4.1343 38.2855
L3.8924 38.2855
" />
<path d="M3.8924 38.2855
L3.7714 38.2251
" />
<path d="M5.4647 37.4389
L5.4647 38.2855
" />
<path d="M5.1623 36.9551
L4.8600 37.8622
" />
<path d="M4.8600 37.8622
L5.6461 37.8622
" />
</g></g>
<g style="fill:none; 
stroke:#840000; stroke-width:0.1524; stroke-opacity:1; 
stroke-linecap:round; stroke-linejoin:round;">
<path d="M6.5533 41.2430
L2.7433 41.2430
" />
</g>
<g style="fill:none; 
stroke:#006464; stroke-width:0.1524; stroke-opacity:1; 
stroke-linecap:round; stroke-linejoin:round;">
<text x="7.0613" y="41.8780"
textLength="3.7108" font-size="1.6933" lengthAdjust="spacingAndGlyphs"
text-anchor="start" opacity="0" stroke-opacity="0">A11</text>
<g class="stroked-text"><desc>A11</desc>
<path d="M7.4034 41.4597
L8.0081 41.4597
" />
<path d="M7.2824 41.8225
L7.7057 40.5525
" />
<path d="M7.7057 40.5525
L8.1291 41.8225
" />
<path d="M9.2177 41.8225
L8.4920 41.8225
" />
<path d="M8.8548 41.8225
L8.8548 40.5525
" />
<path d="M8.8548 40.5525
L8.7339 40.7340
" />
<path d="M8.7339 40.7340
L8.6129 40.8549
" />
<path d="M8.6129 40.8549
L8.4920 40.9154
" />
<path d="M10.4272 41.8225
L9.7015 41.8225
" />
<path d="M10.0643 41.8225
L10.0643 40.5525
" />
<path d="M10.0643 40.5525
L9.9434 40.7340
" />
<path d="M9.9434 40.7340
L9.8224 40.8549
" />
<path d="M9.8224 40.8549
L9.7015 40.9154
" />
</g></g>
<g style="fill:none; 
stroke:#A90000; stroke-width:0.1524; stroke-opacity:1; 
stroke-linecap:round; stroke-linejoin:round;">
<text x="4.6483" y="40.9890"
textLength="2.5617" font-size="1.6933" lengthAdjust="spacingAndGlyphs"
text-anchor="middle" opacity="0" stroke-opacity="0">a3</text>
<g class="stroked-text"><desc>a3</desc>
<path d="M4.3157 40.8255
L4.3157 40.1603
" />
<path d="M4.3157 40.1603
L4.2552 40.0393
" />
<path d="M4.2552 40.0393
L4.1343 39.9789
" />
<path d="M4.1343 39.9789
L3.8924 39.9789
" />
<path d="M3.8924 39.9789
L3.7714 40.0393
" />
<path d="M4.3157 40.7651
L4.1948 40.8255
" />
<path d="M4.1948 40.8255
L3.8924 40.8255
" />
<path d="M3.8924 40.8255
L3.7714 40.7651
" />
<path d="M3.7714 40.7651
L3.7110 40.6441
" />
<path d="M3.7110 40.6441
L3.7110 40.5231
" />
<path d="M3.7110 40.5231
L3.7714 40.4022
" />
<path d="M3.7714 40.4022
L3.8924 40.3417
" />
<path d="M3.8924 40.3417
L4.1948 40.3417
" />
<path d="M4.1948 40.3417
L4.3157 40.2812
" />
<path d="M4.7995 39.5555
L5.5857 39.5555
" />
<path d="M5.5857 39.5555
L5.1623 40.0393
" />
<path d="M5.1623 40.0393
L5.3438 40.0393
" />
<path d="M5.3438 40.0393
L5.4647 40.0998
" />
<path d="M5.4647 40.0998
L5.5252 40.1603
" />
<path d="M5.5252 40.1603
L5.5857 40.2812
" />
<path d="M5.5857 40.2812
L5.5857 40.5836
" />
<path d="M5.5857 40.5836
L5.5252 40.7046
" />
<path d="M5.5252 40.7046
L5.4647 40.7651
" />
<path d="M5.4647 40.7651
L5.3438 40.8255
" />
<path d="M5.3438 40.8255
L4.9809 40.8255
" />
<path d="M4.9809 40.8255
L4.8600 40.7651
" />
<path d="M4.8600 40.7651
L4.7995 40.7046
" />
</g></g>
<g style="fill:none; 
stroke:#840000; stroke-width:0.1524; stroke-opacity:1; 
stroke-linecap:round; stroke-linejoin:round;">
<path d="M6.5533 43.7830
L2.7433 43.7830
" />
</g>
<g style="fill:none; 
stroke:#006464; stroke-width:0.1524; stroke-opacity:1; 
stroke-linecap:round; stroke-linejoin:round;">
<text x="7.0613" y="44.4180"
textLength="3.7108" font-size="1.6933" lengthAdjust="spacingAndGlyphs"
text-anchor="start" opacity="0" stroke-opacity="0">A12</text>
<g class="stroked-text"><desc>A12</desc>
<path d="M7.4034 43.9997
L8.0081 43.9997
" />
<path d="M7.2824 44.3625
L7.7057 43.0925
" />
<path d="M7.7057 43.0925
L8.1291 44.3625
" />
<path d="M9.2177 44.3625
L8.4920 44.3625
" />
<path d="M8.8548 44.3625
L8.8548 43.0925
" />
<path d="M8.8548 43.0925
L8.7339 43.2740
" />
<path d="M8.7339 43.2740
L8.6129 43.3949
" />
<path d="M8.6129 43.3949
L8.4920 43.4554
" />
<path d="M9.7015 43.2135
L9.7619 43.1530
" />
<path d="M9.7619 43.1530
L9.8829 43.0925
" />
<path d="M9.8829 43.0925
L10.1853 43.0925
" />
<path d="M10.1853 43.0925
L10.3062 43.1530
" />
<path d="M10.3062 43.1530
L10.3667 43.2135
" />
<path d="M10.3667 43.2135
L10.4272 43.3344
" />
<path d="M10.4272 43.3344
L10.4272 43.4554
" />
<path d="M10.4272 43.4554
L10.3667 43.6368
" />
<path d="M10.3667 43.6368
L9.6410 44.3625
" />
<path d="M9.6410 44.3625
L10.4272 44.3625
" />
</g></g>
<g style="fill:none; 
stroke:#A90000; stroke-width:0.1524; stroke-opacity:1; 
stroke-linecap:round; stroke-linejoin:round;">
<text x="4.6483" y="43.5290"
textLength="2.5617" font-size="1.6933" lengthAdjust="spacingAndGlyphs"
text-anchor="middle" opacity="0" stroke-opacity="0">b3</text>
<g class="stroked-text"><desc>b3</desc>
<path d="M3.7714 43.3655
L3.7714 42.0955
" />
<path d="M3.7714 42.5793
L3.8924 42.5189
" />
<path d="M3.8924 42.5189
L4.1343 42.5189
" />
<path d="M4.1343 42.5189
L4.2552 42.5793
" />
<path d="M4.2552 42.5793
L4.3157 42.6398
" />
<path d="M4.3157 42.6398
L4.3762 42.7608
" />
<path d="M4.3762 42.7608
L4.3762 43.1236
" />
<path d="M4.3762 43.1236
L4.3157 43.2446
" />
<path d="M4.3157 43.2446
L4.2552 43.3051
" />
<path d="M4.2552 43.3051
L4.1343 43.3655
" />
<path d="M4.1343 43.3655
L3.8924 43.3655
" />
<path d="M3.8924 43.3655
L3.7714 43.3051
" />
<path d="M4.7995 42.0955
L5.5857 42.0955
" />
<path d="M5.5857 42.0955
L5.1623 42.5793
" />
<path d="M5.1623 42.5793
L5.3438 42.5793
" />
<path d="M5.3438 42.5793
L5.4647 42.6398
" />
<path d="M5.4647 42.6398
L5.5252 42.7003
" />
<path d="M5.5252 42.7003
L5.5857 42.8212
" />
<path d="M5.5857 42.8212
L5.5857 43.1236
" />
<path d="M5.5857 43.1236
L5.5252 43.2446
" />
<path d="M5.5252 43.2446
L5.4647 43.3051
" />
<path d="M5.4647 43.3051
L5.3438 43.3655
" />
<path d="M5.3438 43.3655
L4.9809 43.3655
" />
<path d="M4.9809 43.3655
L4.8600 43.3051
" />
<path d="M4.8600 43.3051
L4.7995 43.2446
" />
</g></g>
<g style="fill:none; 
stroke:#840000; stroke-width:0.1524; stroke-opacity:1; 
stroke-linecap:round; stroke-linejoin:round;">
<path d="M6.5533 46.3230
L2.7433 46.3230
" />
</g>
<g style="fill:none; 
stroke:#006464; stroke-width:0.1524; stroke-opacity:1; 
stroke-linecap:round; stroke-linejoin:round;">
<text x="7.0613" y="46.9580"
textLength="3.7108" font-size="1.6933" lengthAdjust="spacingAndGlyphs"
text-anchor="start" opacity="0" stroke-opacity="0">A13</text>
<g class="stroked-text"><desc>A13</desc>
<path d="M7.4034 46.5397
L8.0081 46.5397
" />
<path d="M7.2824 46.9025
L7.7057 45.6325
" />
<path d="M7.7057 45.6325
L8.1291 46.9025
" />
<path d="M9.2177 46.9025
L8.4920 46.9025
" />
<path d="M8.8548 46.9025
L8.8548 45.6325
" />
<path d="M8.8548 45.6325
L8.7339 45.8140
" />
<path d="M8.7339 45.8140
L8.6129 45.9349
" />
<path d="M8.6129 45.9349
L8.4920 45.9954
" />
<path d="M9.6410 45.6325
L10.4272 45.6325
" />
<path d="M10.4272 45.6325
L10.0038 46.1163
" />
<path d="M10.0038 46.1163
L10.1853 46.1163
" />
<path d="M10.1853 46.1163
L10.3062 46.1768
" />
<path d="M10.3062 46.1768
L10.3667 46.2373
" />
<path d="M10.3667 46.2373
L10.4272 46.3582
" />
<path d="M10.4272 46.3582
L10.4272 46.6606
" />
<path d="M10.4272 46.6606
L10.3667 46.7816
" />
<path d="M10.3667 46.7816
L10.3062 46.8421
" />
<path d="M10.3062 46.8421
L10.1853 46.9025
" />
<path d="M10.1853 46.9025
L9.8224 46.9025
" />
<path d="M9.8224 46.9025
L9.7015 46.8421
" />
<path d="M9.7015 46.8421
L9.6410 46.7816
" />
</g></g>
<g style="fill:none; 
stroke:#A90000; stroke-width:0.1524; stroke-opacity:1; 
stroke-linecap:round; stroke-linejoin:round;">
<text x="4.6483" y="46.0690"
textLength="2.5617" font-size="1.6933" lengthAdjust="spacingAndGlyphs"
text-anchor="middle" opacity="0" stroke-opacity="0">a2</text>
<g class="stroked-text"><desc>a2</desc>
<path d="M4.3157 45.9055
L4.3157 45.2403
" />
<path d="M4.3157 45.2403
L4.2552 45.1193
" />
<path d="M4.2552 45.1193
L4.1343 45.0589
" />
<path d="M4.1343 45.0589
L3.8924 45.0589
" />
<path d="M3.8924 45.0589
L3.7714 45.1193
" />
<path d="M4.3157 45.8451
L4.1948 45.9055
" />
<path d="M4.1948 45.9055
L3.8924 45.9055
" />
<path d="M3.8924 45.9055
L3.7714 45.8451
" />
<path d="M3.7714 45.8451
L3.7110 45.7241
" />
<path d="M3.7110 45.7241
L3.7110 45.6031
" />
<path d="M3.7110 45.6031
L3.7714 45.4822
" />
<path d="M3.7714 45.4822
L3.8924 45.4217
" />
<path d="M3.8924 45.4217
L4.1948 45.4217
" />
<path d="M4.1948 45.4217
L4.3157 45.3612
" />
<path d="M4.8600 44.7565
L4.9204 44.6960
" />
<path d="M4.9204 44.6960
L5.0414 44.6355
" />
<path d="M5.0414 44.6355
L5.3438 44.6355
" />
<path d="M5.3438 44.6355
L5.4647 44.6960
" />
<path d="M5.4647 44.6960
L5.5252 44.7565
" />
<path d="M5.5252 44.7565
L5.5857 44.8774
" />
<path d="M5.5857 44.8774
L5.5857 44.9984
" />
<path d="M5.5857 44.9984
L5.5252 45.1798
" />
<path d="M5.5252 45.1798
L4.7995 45.9055
" />
<path d="M4.7995 45.9055
L5.5857 45.9055
" />
</g></g>
<g style="fill:none; 
stroke:#840000; stroke-width:0.1524; stroke-opacity:1; 
stroke-linecap:round; stroke-linejoin:round;">
<path d="M6.5533 48.8630
L2.7433 48.8630
" />
</g>
<g style="fill:none; 
stroke:#006464; stroke-width:0.1524; stroke-opacity:1; 
stroke-linecap:round; stroke-linejoin:round;">
<text x="7.0613" y="49.4980"
textLength="3.7108" font-size="1.6933" lengthAdjust="spacingAndGlyphs"
text-anchor="start" opacity="0" stroke-opacity="0">A14</text>
<g class="stroked-text"><desc>A14</desc>
<path d="M7.4034 49.0797
L8.0081 49.0797
" />
<path d="M7.2824 49.4425
L7.7057 48.1725
" />
<path d="M7.7057 48.1725
L8.1291 49.4425
" />
<path d="M9.2177 49.4425
L8.4920 49.4425
" />
<path d="M8.8548 49.4425
L8.8548 48.1725
" />
<path d="M8.8548 48.1725
L8.7339 48.3540
" />
<path d="M8.7339 48.3540
L8.6129 48.4749
" />
<path d="M8.6129 48.4749
L8.4920 48.5354
" />
<path d="M10.3062 48.5959
L10.3062 49.4425
" />
<path d="M10.0038 48.1121
L9.7015 49.0192
" />
<path d="M9.7015 49.0192
L10.4876 49.0192
" />
</g></g>
<g style="fill:none; 
stroke:#A90000; stroke-width:0.1524; stroke-opacity:1; 
stroke-linecap:round; stroke-linejoin:round;">
<text x="4.6483" y="48.6090"
textLength="2.5617" font-size="1.6933" lengthAdjust="spacingAndGlyphs"
text-anchor="middle" opacity="0" stroke-opacity="0">b2</text>
<g class="stroked-text"><desc>b2</desc>
<path d="M3.7714 48.4455
L3.7714 47.1755
" />
<path d="M3.7714 47.6593
L3.8924 47.5989
" />
<path d="M3.8924 47.5989
L4.1343 47.5989
" />
<path d="M4.1343 47.5989
L4.2552 47.6593
" />
<path d="M4.2552 47.6593
L4.3157 47.7198
" />
<path d="M4.3157 47.7198
L4.3762 47.8408
" />
<path d="M4.3762 47.8408
L4.3762 48.2036
" />
<path d="M4.3762 48.2036
L4.3157 48.3246
" />
<path d="M4.3157 48.3246
L4.2552 48.3851
" />
<path d="M4.2552 48.3851
L4.1343 48.4455
" />
<path d="M4.1343 48.4455
L3.8924 48.4455
" />
<path d="M3.8924 48.4455
L3.7714 48.3851
" />
<path d="M4.8600 47.2965
L4.9204 47.2360
" />
<path d="M4.9204 47.2360
L5.0414 47.1755
" />
<path d="M5.0414 47.1755
L5.3438 47.1755
" />
<path d="M5.3438 47.1755
L5.4647 47.2360
" />
<path d="M5.4647 47.2360
L5.5252 47.2965
" />
<path d="M5.5252 47.2965
L5.5857 47.4174
" />
<path d="M5.5857 47.4174
L5.5857 47.5384
" />
<path d="M5.5857 47.5384
L5.5252 47.7198
" />
<path d="M5.5252 47.7198
L4.7995 48.4455
" />
<path d="M4.7995 48.4455
L5.5857 48.4455
" />
</g></g>
<g style="fill:none; 
stroke:#840000; stroke-width:0.1524; stroke-opacity:1; 
stroke-linecap:round; stroke-linejoin:round;">
<path d="M11.6333 52.6730
L11.6333 56.4830
" />
</g>
<g style="fill:none; 
stroke:#006464; stroke-width:0.1524; stroke-opacity:1; 
stroke-linecap:round; stroke-linejoin:round;">
<g transform="rotate(-90.000000 11.6333 52.1650)">
<text x="11.6333" y="52.8000"
textLength="3.4690" font-size="1.6933" lengthAdjust="spacingAndGlyphs"
text-anchor="start" opacity="0" stroke-opacity="0">Vcc</text>
</g>
<g class="stroked-text"><desc>Vcc</desc>
<path d="M10.9428 51.9438
L12.2128 51.5205
" />
<path d="M12.2128 51.5205
L10.9428 51.0971
" />
<path d="M12.1524 50.1295
L12.2128 50.2504
" />
<path d="M12.2128 50.2504
L12.2128 50.4923
" />
<path d="M12.2128 50.4923
L12.1524 50.6133
" />
<path d="M12.1524 50.6133
L12.0919 50.6738
" />
<path d="M12.0919 50.6738
L11.9709 50.7342
" />
<path d="M11.9709 50.7342
L11.6081 50.7342
" />
<path d="M11.6081 50.7342
L11.4871 50.6738
" />
<path d="M11.4871 50.6738
L11.4266 50.6133
" />
<path d="M11.4266 50.6133
L11.3662 50.4923
" />
<path d="M11.3662 50.4923
L11.3662 50.2504
" />
<path d="M11.3662 50.2504
L11.4266 50.1295
" />
<path d="M12.1524 49.0409
L12.2128 49.1618
" />
<path d="M12.2128 49.1618
L12.2128 49.4037
" />
<path d="M12.2128 49.4037
L12.1524 49.5247
" />
<path d="M12.1524 49.5247
L12.0919 49.5852
" />
<path d="M12.0919 49.5852
L11.9709 49.6456
" />
<path d="M11.9709 49.6456
L11.6081 49.6456
" />
<path d="M11.6081 49.6456
L11.4871 49.5852
" />
<path d="M11.4871 49.5852
L11.4266 49.5247
" />
<path d="M11.4266 49.5247
L11.3662 49.4037
" />
<path d="M11.3662 49.4037
L11.3662 49.1618
" />
<path d="M11.3662 49.1618
L11.4266 49.0409
" />
</g></g>
<g style="fill:none; 
stroke:#A90000; stroke-width:0.1524; stroke-opacity:1; 
stroke-linecap:round; stroke-linejoin:round;">
<g transform="rotate(-90.000000 11.3793 54.5780)">
<text x="11.3793" y="54.5780"
textLength="2.5617" font-size="1.6933" lengthAdjust="spacingAndGlyphs"
text-anchor="middle" opacity="0" stroke-opacity="0">b8</text>
</g>
<g class="stroked-text"><desc>b8</desc>
<path d="M11.2158 55.4548
L9.9458 55.4548
" />
<path d="M10.4296 55.4548
L10.3692 55.3338
" />
<path d="M10.3692 55.3338
L10.3692 55.0919
" />
<path d="M10.3692 55.0919
L10.4296 54.9710
" />
<path d="M10.4296 54.9710
L10.4901 54.9105
" />
<path d="M10.4901 54.9105
L10.6111 54.8500
" />
<path d="M10.6111 54.8500
L10.9739 54.8500
" />
<path d="M10.9739 54.8500
L11.0949 54.9105
" />
<path d="M11.0949 54.9105
L11.1554 54.9710
" />
<path d="M11.1554 54.9710
L11.2158 55.0919
" />
<path d="M11.2158 55.0919
L11.2158 55.3338
" />
<path d="M11.2158 55.3338
L11.1554 55.4548
" />
<path d="M10.4901 54.1243
L10.4296 54.2453
" />
<path d="M10.4296 54.2453
L10.3692 54.3058
" />
<path d="M10.3692 54.3058
L10.2482 54.3662
" />
<path d="M10.2482 54.3662
L10.1877 54.3662
" />
<path d="M10.1877 54.3662
L10.0668 54.3058
" />
<path d="M10.0668 54.3058
L10.0063 54.2453
" />
<path d="M10.0063 54.2453
L9.9458 54.1243
" />
<path d="M9.9458 54.1243
L9.9458 53.8824
" />
<path d="M9.9458 53.8824
L10.0063 53.7615
" />
<path d="M10.0063 53.7615
L10.0668 53.7010
" />
<path d="M10.0668 53.7010
L10.1877 53.6405
" />
<path d="M10.1877 53.6405
L10.2482 53.6405
" />
<path d="M10.2482 53.6405
L10.3692 53.7010
" />
<path d="M10.3692 53.7010
L10.4296 53.7615
" />
<path d="M10.4296 53.7615
L10.4901 53.8824
" />
<path d="M10.4901 53.8824
L10.4901 54.1243
" />
<path d="M10.4901 54.1243
L10.5506 54.2453
" />
<path d="M10.5506 54.2453
L10.6111 54.3058
" />
<path d="M10.6111 54.3058
L10.7320 54.3662
" />
<path d="M10.7320 54.3662
L10.9739 54.3662
" />
<path d="M10.9739 54.3662
L11.0949 54.3058
" />
<path d="M11.0949 54.3058
L11.1554 54.2453
" />
<path d="M11.1554 54.2453
L11.2158 54.1243
" />
<path d="M11.2158 54.1243
L11.2158 53.8824
" />
<path d="M11.2158 53.8824
L11.1554 53.7615
" />
<path d="M11.1554 53.7615
L11.0949 53.7010
" />
<path d="M11.0949 53.7010
L10.9739 53.6405
" />
<path d="M10.9739 53.6405
L10.7320 53.6405
" />
<path d="M10.7320 53.6405
L10.6111 53.7010
" />
<path d="M10.6111 53.7010
L10.5506 53.7615
" />
<path d="M10.5506 53.7615
L10.4901 53.8824
" />
</g></g>
<g style="fill:none; 
stroke:#840000; stroke-width:0.1524; stroke-opacity:1; 
stroke-linecap:round; stroke-linejoin:round;">
<path d="M15.4433 52.6730
L15.4433 56.4830
" />
</g>
<g style="fill:none; 
stroke:#006464; stroke-width:0.1524; stroke-opacity:1; 
stroke-linecap:round; stroke-linejoin:round;">
<g transform="rotate(-90.000000 15.4433 52.1650)">
<text x="15.4433" y="52.8000"
textLength="4.0737" font-size="1.6933" lengthAdjust="spacingAndGlyphs"
text-anchor="start" opacity="0" stroke-opacity="0">GND</text>
</g>
<g class="stroked-text"><desc>GND</desc>
<path d="M14.8133 51.0971
L14.7528 51.2181
" />
<path d="M14.7528 51.2181
L14.7528 51.3995
" />
<path d="M14.7528 51.3995
L14.8133 51.5809
" />
<path d="M14.8133 51.5809
L14.9343 51.7019
" />
<path d="M14.9343 51.7019
L15.0552 51.7624
" />
<path d="M15.0552 51.7624
L15.2971 51.8228
" />
<path d="M15.2971 51.8228
L15.4785 51.8228
" />
<path d="M15.4785 51.8228
L15.7204 51.7624
" />
<path d="M15.7204 51.7624
L15.8414 51.7019
" />
<path d="M15.8414 51.7019
L15.9624 51.5809
" />
<path d="M15.9624 51.5809
L16.0228 51.3995
" />
<path d="M16.0228 51.3995
L16.0228 51.2786
" />
<path d="M16.0228 51.2786
L15.9624 51.0971
" />
<path d="M15.9624 51.0971
L15.9019 51.0367
" />
<path d="M15.9019 51.0367
L15.4785 51.0367
" />
<path d="M15.4785 51.0367
L15.4785 51.2786
" />
<path d="M16.0228 50.4924
L14.7528 50.4924
" />
<path d="M14.7528 50.4924
L16.0228 49.7667
" />
<path d="M16.0228 49.7667
L14.7528 49.7667
" />
<path d="M16.0228 49.1619
L14.7528 49.1619
" />
<path d="M14.7528 49.1619
L14.7528 48.8595
" />
<path d="M14.7528 48.8595
L14.8133 48.6781
" />
<path d="M14.8133 48.6781
L14.9343 48.5571
" />
<path d="M14.9343 48.5571
L15.0552 48.4966
" />
<path d="M15.0552 48.4966
L15.2971 48.4362
" />
<path d="M15.2971 48.4362
L15.4785 48.4362
" />
<path d="M15.4785 48.4362
L15.7204 48.4966
" />
<path d="M15.7204 48.4966
L15.8414 48.5571
" />
<path d="M15.8414 48.5571
L15.9624 48.6781
" />
<path d="M15.9624 48.6781
L16.0228 48.8595
" />
<path d="M16.0228 48.8595
L16.0228 49.1619
" />
</g></g>
<g style="fill:none; 
stroke:#A90000; stroke-width:0.1524; stroke-opacity:1; 
stroke-linecap:round; stroke-linejoin:round;">
<g transform="rotate(-90.000000 15.1893 54.5780)">
<text x="15.1893" y="54.5780"
textLength="2.5617" font-size="1.6933" lengthAdjust="spacingAndGlyphs"
text-anchor="middle" opacity="0" stroke-opacity="0">a7</text>
</g>
<g class="stroked-text"><desc>a7</desc>
<path d="M15.0258 54.9105
L14.3606 54.9105
" />
<path d="M14.3606 54.9105
L14.2396 54.9710
" />
<path d="M14.2396 54.9710
L14.1792 55.0919
" />
<path d="M14.1792 55.0919
L14.1792 55.3338
" />
<path d="M14.1792 55.3338
L14.2396 55.4548
" />
<path d="M14.9654 54.9105
L15.0258 55.0314
" />
<path d="M15.0258 55.0314
L15.0258 55.3338
" />
<path d="M15.0258 55.3338
L14.9654 55.4548
" />
<path d="M14.9654 55.4548
L14.8444 55.5152
" />
<path d="M14.8444 55.5152
L14.7234 55.5152
" />
<path d="M14.7234 55.5152
L14.6025 55.4548
" />
<path d="M14.6025 55.4548
L14.5420 55.3338
" />
<path d="M14.5420 55.3338
L14.5420 55.0314
" />
<path d="M14.5420 55.0314
L14.4815 54.9105
" />
<path d="M13.7558 54.4267
L13.7558 53.5801
" />
<path d="M13.7558 53.5801
L15.0258 54.1243
" />
</g></g>
<g style="fill:none; 
stroke:#840000; stroke-width:0.1524; stroke-opacity:1; 
stroke-linecap:round; stroke-linejoin:round;">
<path d="M21.7933 13.3030
L25.6033 13.3030
" />
</g>
<g style="fill:none; 
stroke:#006464; stroke-width:0.1524; stroke-opacity:1; 
stroke-linecap:round; stroke-linejoin:round;">
<text x="21.2853" y="13.9380"
textLength="2.6827" font-size="1.6933" lengthAdjust="spacingAndGlyphs"
text-anchor="end" opacity="0" stroke-opacity="0">D0</text>
<g class="stroked-text"><desc>D0</desc>
<path d="M19.0079 13.8825
L19.0079 12.6125
" />
<path d="M19.0079 12.6125
L19.3103 12.6125
" />
<path d="M19.3103 12.6125
L19.4917 12.6730
" />
<path d="M19.4917 12.6730
L19.6127 12.7940
" />
<path d="M19.6127 12.7940
L19.6732 12.9149
" />
<path d="M19.6732 12.9149
L19.7336 13.1568
" />
<path d="M19.7336 13.1568
L19.7336 13.3382
" />
<path d="M19.7336 13.3382
L19.6732 13.5801
" />
<path d="M19.6732 13.5801
L19.6127 13.7011
" />
<path d="M19.6127 13.7011
L19.4917 13.8221
" />
<path d="M19.4917 13.8221
L19.3103 13.8825
" />
<path d="M19.3103 13.8825
L19.0079 13.8825
" />
<path d="M20.5198 12.6125
L20.6408 12.6125
" />
<path d="M20.6408 12.6125
L20.7617 12.6730
" />
<path d="M20.7617 12.6730
L20.8222 12.7335
" />
<path d="M20.8222 12.7335
L20.8827 12.8544
" />
<path d="M20.8827 12.8544
L20.9432 13.0963
" />
<path d="M20.9432 13.0963
L20.9432 13.3987
" />
<path d="M20.9432 13.3987
L20.8827 13.6406
" />
<path d="M20.8827 13.6406
L20.8222 13.7616
" />
<path d="M20.8222 13.7616
L20.7617 13.8221
" />
<path d="M20.7617 13.8221
L20.6408 13.8825
" />
<path d="M20.6408 13.8825
L20.5198 13.8825
" />
<path d="M20.5198 13.8825
L20.3989 13.8221
" />
<path d="M20.3989 13.8221
L20.3384 13.7616
" />
<path d="M20.3384 13.7616
L20.2779 13.6406
" />
<path d="M20.2779 13.6406
L20.2175 13.3987
" />
<path d="M20.2175 13.3987
L20.2175 13.0963
" />
<path d="M20.2175 13.0963
L20.2779 12.8544
" />
<path d="M20.2779 12.8544
L20.3384 12.7335
" />
<path d="M20.3384 12.7335
L20.3989 12.6730
" />
<path d="M20.3989 12.6730
L20.5198 12.6125
" />
</g></g>
<g style="fill:none; 
stroke:#A90000; stroke-width:0.1524; stroke-opacity:1; 
stroke-linecap:round; stroke-linejoin:round;">
<text x="23.6983" y="13.0490"
textLength="3.7712" font-size="1.6933" lengthAdjust="spacingAndGlyphs"
text-anchor="middle" opacity="0" stroke-opacity="0">b14</text>
<g class="stroked-text"><desc>b14</desc>
<path d="M22.2166 12.8855
L22.2166 11.6155
" />
<path d="M22.2166 12.0993
L22.3376 12.0389
" />
<path d="M22.3376 12.0389
L22.5795 12.0389
" />
<path d="M22.5795 12.0389
L22.7004 12.0993
" />
<path d="M22.7004 12.0993
L22.7609 12.1598
" />
<path d="M22.7609 12.1598
L22.8214 12.2808
" />
<path d="M22.8214 12.2808
L22.8214 12.6436
" />
<path d="M22.8214 12.6436
L22.7609 12.7646
" />
<path d="M22.7609 12.7646
L22.7004 12.8251
" />
<path d="M22.7004 12.8251
L22.5795 12.8855
" />
<path d="M22.5795 12.8855
L22.3376 12.8855
" />
<path d="M22.3376 12.8855
L22.2166 12.8251
" />
<path d="M24.0309 12.8855
L23.3052 12.8855
" />
<path d="M23.6680 12.8855
L23.6680 11.6155
" />
<path d="M23.6680 11.6155
L23.5471 11.7970
" />
<path d="M23.5471 11.7970
L23.4261 11.9179
" />
<path d="M23.4261 11.9179
L23.3052 11.9784
" />
<path d="M25.1194 12.0389
L25.1194 12.8855
" />
<path d="M24.8170 11.5551
L24.5147 12.4622
" />
<path d="M24.5147 12.4622
L25.3008 12.4622
" />
</g></g>
<g style="fill:none; 
stroke:#840000; stroke-width:0.1524; stroke-opacity:1; 
stroke-linecap:round; stroke-linejoin:round;">
<path d="M21.7933 15.8430
L25.6033 15.8430
" />
</g>
<g style="fill:none; 
stroke:#006464; stroke-width:0.1524; stroke-opacity:1; 
stroke-linecap:round; stroke-linejoin:round;">
<text x="21.2853" y="16.4780"
textLength="2.6827" font-size="1.6933" lengthAdjust="spacingAndGlyphs"
text-anchor="end" opacity="0" stroke-opacity="0">D1</text>
<g class="stroked-text"><desc>D1</desc>
<path d="M19.0079 16.4225
L19.0079 15.1525
" />
<path d="M19.0079 15.1525
L19.3103 15.1525
" />
<path d="M19.3103 15.1525
L19.4917 15.2130
" />
<path d="M19.4917 15.2130
L19.6127 15.3340
" />
<path d="M19.6127 15.3340
L19.6732 15.4549
" />
<path d="M19.6732 15.4549
L19.7336 15.6968
" />
<path d="M19.7336 15.6968
L19.7336 15.8782
" />
<path d="M19.7336 15.8782
L19.6732 16.1201
" />
<path d="M19.6732 16.1201
L19.6127 16.2411
" />
<path d="M19.6127 16.2411
L19.4917 16.3621
" />
<path d="M19.4917 16.3621
L19.3103 16.4225
" />
<path d="M19.3103 16.4225
L19.0079 16.4225
" />
<path d="M20.9432 16.4225
L20.2175 16.4225
" />
<path d="M20.5803 16.4225
L20.5803 15.1525
" />
<path d="M20.5803 15.1525
L20.4594 15.3340
" />
<path d="M20.4594 15.3340
L20.3384 15.4549
" />
<path d="M20.3384 15.4549
L20.2175 15.5154
" />
</g></g>
<g style="fill:none; 
stroke:#A90000; stroke-width:0.1524; stroke-opacity:1; 
stroke-linecap:round; stroke-linejoin:round;">
<text x="23.6983" y="15.5890"
textLength="3.7712" font-size="1.6933" lengthAdjust="spacingAndGlyphs"
text-anchor="middle" opacity="0" stroke-opacity="0">a14</text>
<g class="stroked-text"><desc>a14</desc>
<path d="M22.7609 15.4255
L22.7609 14.7603
" />
<path d="M22.7609 14.7603
L22.7004 14.6393
" />
<path d="M22.7004 14.6393
L22.5795 14.5789
" />
<path d="M22.5795 14.5789
L22.3376 14.5789
" />
<path d="M22.3376 14.5789
L22.2166 14.6393
" />
<path d="M22.7609 15.3651
L22.6400 15.4255
" />
<path d="M22.6400 15.4255
L22.3376 15.4255
" />
<path d="M22.3376 15.4255
L22.2166 15.3651
" />
<path d="M22.2166 15.3651
L22.1562 15.2441
" />
<path d="M22.1562 15.2441
L22.1562 15.1231
" />
<path d="M22.1562 15.1231
L22.2166 15.0022
" />
<path d="M22.2166 15.0022
L22.3376 14.9417
" />
<path d="M22.3376 14.9417
L22.6400 14.9417
" />
<path d="M22.6400 14.9417
L22.7609 14.8812
" />
<path d="M24.0309 15.4255
L23.3052 15.4255
" />
<path d="M23.6680 15.4255
L23.6680 14.1555
" />
<path d="M23.6680 14.1555
L23.5471 14.3370
" />
<path d="M23.5471 14.3370
L23.4261 14.4579
" />
<path d="M23.4261 14.4579
L23.3052 14.5184
" />
<path d="M25.1194 14.5789
L25.1194 15.4255
" />
<path d="M24.8170 14.0951
L24.5147 15.0022
" />
<path d="M24.5147 15.0022
L25.3008 15.0022
" />
</g></g>
<g style="fill:none; 
stroke:#840000; stroke-width:0.1524; stroke-opacity:1; 
stroke-linecap:round; stroke-linejoin:round;">
<path d="M21.7933 18.3830
L25.6033 18.3830
" />
</g>
<g style="fill:none; 
stroke:#006464; stroke-width:0.1524; stroke-opacity:1; 
stroke-linecap:round; stroke-linejoin:round;">
<text x="21.2853" y="19.0180"
textLength="2.6827" font-size="1.6933" lengthAdjust="spacingAndGlyphs"
text-anchor="end" opacity="0" stroke-opacity="0">D2</text>
<g class="stroked-text"><desc>D2</desc>
<path d="M19.0079 18.9625
L19.0079 17.6925
" />
<path d="M19.0079 17.6925
L19.3103 17.6925
" />
<path d="M19.3103 17.6925
L19.4917 17.7530
" />
<path d="M19.4917 17.7530
L19.6127 17.8740
" />
<path d="M19.6127 17.8740
L19.6732 17.9949
" />
<path d="M19.6732 17.9949
L19.7336 18.2368
" />
<path d="M19.7336 18.2368
L19.7336 18.4182
" />
<path d="M19.7336 18.4182
L19.6732 18.6601
" />
<path d="M19.6732 18.6601
L19.6127 18.7811
" />
<path d="M19.6127 18.7811
L19.4917 18.9021
" />
<path d="M19.4917 18.9021
L19.3103 18.9625
" />
<path d="M19.3103 18.9625
L19.0079 18.9625
" />
<path d="M20.2175 17.8135
L20.2779 17.7530
" />
<path d="M20.2779 17.7530
L20.3989 17.6925
" />
<path d="M20.3989 17.6925
L20.7013 17.6925
" />
<path d="M20.7013 17.6925
L20.8222 17.7530
" />
<path d="M20.8222 17.7530
L20.8827 17.8135
" />
<path d="M20.8827 17.8135
L20.9432 17.9344
" />
<path d="M20.9432 17.9344
L20.9432 18.0554
" />
<path d="M20.9432 18.0554
L20.8827 18.2368
" />
<path d="M20.8827 18.2368
L20.1570 18.9625
" />
<path d="M20.1570 18.9625
L20.9432 18.9625
" />
</g></g>
<g style="fill:none; 
stroke:#A90000; stroke-width:0.1524; stroke-opacity:1; 
stroke-linecap:round; stroke-linejoin:round;">
<text x="23.6983" y="18.1290"
textLength="3.7712" font-size="1.6933" lengthAdjust="spacingAndGlyphs"
text-anchor="middle" opacity="0" stroke-opacity="0">b13</text>
<g class="stroked-text"><desc>b13</desc>
<path d="M22.2166 17.9655
L22.2166 16.6955
" />
<path d="M22.2166 17.1793
L22.3376 17.1189
" />
<path d="M22.3376 17.1189
L22.5795 17.1189
" />
<path d="M22.5795 17.1189
L22.7004 17.1793
" />
<path d="M22.7004 17.1793
L22.7609 17.2398
" />
<path d="M22.7609 17.2398
L22.8214 17.3608
" />
<path d="M22.8214 17.3608
L22.8214 17.7236
" />
<path d="M22.8214 17.7236
L22.7609 17.8446
" />
<path d="M22.7609 17.8446
L22.7004 17.9051
" />
<path d="M22.7004 17.9051
L22.5795 17.9655
" />
<path d="M22.5795 17.9655
L22.3376 17.9655
" />
<path d="M22.3376 17.9655
L22.2166 17.9051
" />
<path d="M24.0309 17.9655
L23.3052 17.9655
" />
<path d="M23.6680 17.9655
L23.6680 16.6955
" />
<path d="M23.6680 16.6955
L23.5471 16.8770
" />
<path d="M23.5471 16.8770
L23.4261 16.9979
" />
<path d="M23.4261 16.9979
L23.3052 17.0584
" />
<path d="M24.4542 16.6955
L25.2404 16.6955
" />
<path d="M25.2404 16.6955
L24.8170 17.1793
" />
<path d="M24.8170 17.1793
L24.9985 17.1793
" />
<path d="M24.9985 17.1793
L25.1194 17.2398
" />
<path d="M25.1194 17.2398
L25.1799 17.3003
" />
<path d="M25.1799 17.3003
L25.2404 17.4212
" />
<path d="M25.2404 17.4212
L25.2404 17.7236
" />
<path d="M25.2404 17.7236
L25.1799 17.8446
" />
<path d="M25.1799 17.8446
L25.1194 17.9051
" />
<path d="M25.1194 17.9051
L24.9985 17.9655
" />
<path d="M24.9985 17.9655
L24.6356 17.9655
" />
<path d="M24.6356 17.9655
L24.5147 17.9051
" />
<path d="M24.5147 17.9051
L24.4542 17.8446
" />
</g></g>
<g style="fill:none; 
stroke:#840000; stroke-width:0.1524; stroke-opacity:1; 
stroke-linecap:round; stroke-linejoin:round;">
<path d="M21.7933 20.9230
L25.6033 20.9230
" />
</g>
<g style="fill:none; 
stroke:#006464; stroke-width:0.1524; stroke-opacity:1; 
stroke-linecap:round; stroke-linejoin:round;">
<text x="21.2853" y="21.5580"
textLength="2.6827" font-size="1.6933" lengthAdjust="spacingAndGlyphs"
text-anchor="end" opacity="0" stroke-opacity="0">D3</text>
<g class="stroked-text"><desc>D3</desc>
<path d="M19.0079 21.5025
L19.0079 20.2325
" />
<path d="M19.0079 20.2325
L19.3103 20.2325
" />
<path d="M19.3103 20.2325
L19.4917 20.2930
" />
<path d="M19.4917 20.2930
L19.6127 20.4140
" />
<path d="M19.6127 20.4140
L19.6732 20.5349
" />
<path d="M19.6732 20.5349
L19.7336 20.7768
" />
<path d="M19.7336 20.7768
L19.7336 20.9582
" />
<path d="M19.7336 20.9582
L19.6732 21.2001
" />
<path d="M19.6732 21.2001
L19.6127 21.3211
" />
<path d="M19.6127 21.3211
L19.4917 21.4421
" />
<path d="M19.4917 21.4421
L19.3103 21.5025
" />
<path d="M19.3103 21.5025
L19.0079 21.5025
" />
<path d="M20.1570 20.2325
L20.9432 20.2325
" />
<path d="M20.9432 20.2325
L20.5198 20.7163
" />
<path d="M20.5198 20.7163
L20.7013 20.7163
" />
<path d="M20.7013 20.7163
L20.8222 20.7768
" />
<path d="M20.8222 20.7768
L20.8827 20.8373
" />
<path d="M20.8827 20.8373
L20.9432 20.9582
" />
<path d="M20.9432 20.9582
L20.9432 21.2606
" />
<path d="M20.9432 21.2606
L20.8827 21.3816
" />
<path d="M20.8827 21.3816
L20.8222 21.4421
" />
<path d="M20.8222 21.4421
L20.7013 21.5025
" />
<path d="M20.7013 21.5025
L20.3384 21.5025
" />
<path d="M20.3384 21.5025
L20.2175 21.4421
" />
<path d="M20.2175 21.4421
L20.1570 21.3816
" />
</g></g>
<g style="fill:none; 
stroke:#A90000; stroke-width:0.1524; stroke-opacity:1; 
stroke-linecap:round; stroke-linejoin:round;">
<text x="23.6983" y="20.6690"
textLength="3.7712" font-size="1.6933" lengthAdjust="spacingAndGlyphs"
text-anchor="middle" opacity="0" stroke-opacity="0">a13</text>
<g class="stroked-text"><desc>a13</desc>
<path d="M22.7609 20.5055
L22.7609 19.8403
" />
<path d="M22.7609 19.8403
L22.7004 19.7193
" />
<path d="M22.7004 19.7193
L22.5795 19.6589
" />
<path d="M22.5795 19.6589
L22.3376 19.6589
" />
<path d="M22.3376 19.6589
L22.2166 19.7193
" />
<path d="M22.7609 20.4451
L22.6400 20.5055
" />
<path d="M22.6400 20.5055
L22.3376 20.5055
" />
<path d="M22.3376 20.5055
L22.2166 20.4451
" />
<path d="M22.2166 20.4451
L22.1562 20.3241
" />
<path d="M22.1562 20.3241
L22.1562 20.2031
" />
<path d="M22.1562 20.2031
L22.2166 20.0822
" />
<path d="M22.2166 20.0822
L22.3376 20.0217
" />
<path d="M22.3376 20.0217
L22.6400 20.0217
" />
<path d="M22.6400 20.0217
L22.7609 19.9612
" />
<path d="M24.0309 20.5055
L23.3052 20.5055
" />
<path d="M23.6680 20.5055
L23.6680 19.2355
" />
<path d="M23.6680 19.2355
L23.5471 19.4170
" />
<path d="M23.5471 19.4170
L23.4261 19.5379
" />
<path d="M23.4261 19.5379
L23.3052 19.5984
" />
<path d="M24.4542 19.2355
L25.2404 19.2355
" />
<path d="M25.2404 19.2355
L24.8170 19.7193
" />
<path d="M24.8170 19.7193
L24.9985 19.7193
" />
<path d="M24.9985 19.7193
L25.1194 19.7798
" />
<path d="M25.1194 19.7798
L25.1799 19.8403
" />
<path d="M25.1799 19.8403
L25.2404 19.9612
" />
<path d="M25.2404 19.9612
L25.2404 20.2636
" />
<path d="M25.2404 20.2636
L25.1799 20.3846
" />
<path d="M25.1799 20.3846
L25.1194 20.4451
" />
<path d="M25.1194 20.4451
L24.9985 20.5055
" />
<path d="M24.9985 20.5055
L24.6356 20.5055
" />
<path d="M24.6356 20.5055
L24.5147 20.4451
" />
<path d="M24.5147 20.4451
L24.4542 20.3846
" />
</g></g>
<g style="fill:none; 
stroke:#840000; stroke-width:0.1524; stroke-opacity:1; 
stroke-linecap:round; stroke-linejoin:round;">
<path d="M21.7933 23.4630
L25.6033 23.4630
" />
</g>
<g style="fill:none; 
stroke:#006464; stroke-width:0.1524; stroke-opacity:1; 
stroke-linecap:round; stroke-linejoin:round;">
<text x="21.2853" y="24.0980"
textLength="2.6827" font-size="1.6933" lengthAdjust="spacingAndGlyphs"
text-anchor="end" opacity="0" stroke-opacity="0">D4</text>
<g class="stroked-text"><desc>D4</desc>
<path d="M19.0079 24.0425
L19.0079 22.7725
" />
<path d="M19.0079 22.7725
L19.3103 22.7725
" />
<path d="M19.3103 22.7725
L19.4917 22.8330
" />
<path d="M19.4917 22.8330
L19.6127 22.9540
" />
<path d="M19.6127 22.9540
L19.6732 23.0749
" />
<path d="M19.6732 23.0749
L19.7336 23.3168
" />
<path d="M19.7336 23.3168
L19.7336 23.4982
" />
<path d="M19.7336 23.4982
L19.6732 23.7401
" />
<path d="M19.6732 23.7401
L19.6127 23.8611
" />
<path d="M19.6127 23.8611
L19.4917 23.9821
" />
<path d="M19.4917 23.9821
L19.3103 24.0425
" />
<path d="M19.3103 24.0425
L19.0079 24.0425
" />
<path d="M20.8222 23.1959
L20.8222 24.0425
" />
<path d="M20.5198 22.7121
L20.2175 23.6192
" />
<path d="M20.2175 23.6192
L21.0036 23.6192
" />
</g></g>
<g style="fill:none; 
stroke:#A90000; stroke-width:0.1524; stroke-opacity:1; 
stroke-linecap:round; stroke-linejoin:round;">
<text x="23.6983" y="23.2090"
textLength="3.7712" font-size="1.6933" lengthAdjust="spacingAndGlyphs"
text-anchor="middle" opacity="0" stroke-opacity="0">b12</text>
<g class="stroked-text"><desc>b12</desc>
<path d="M22.2166 23.0455
L22.2166 21.7755
" />
<path d="M22.2166 22.2593
L22.3376 22.1989
" />
<path d="M22.3376 22.1989
L22.5795 22.1989
" />
<path d="M22.5795 22.1989
L22.7004 22.2593
" />
<path d="M22.7004 22.2593
L22.7609 22.3198
" />
<path d="M22.7609 22.3198
L22.8214 22.4408
" />
<path d="M22.8214 22.4408
L22.8214 22.8036
" />
<path d="M22.8214 22.8036
L22.7609 22.9246
" />
<path d="M22.7609 22.9246
L22.7004 22.9851
" />
<path d="M22.7004 22.9851
L22.5795 23.0455
" />
<path d="M22.5795 23.0455
L22.3376 23.0455
" />
<path d="M22.3376 23.0455
L22.2166 22.9851
" />
<path d="M24.0309 23.0455
L23.3052 23.0455
" />
<path d="M23.6680 23.0455
L23.6680 21.7755
" />
<path d="M23.6680 21.7755
L23.5471 21.9570
" />
<path d="M23.5471 21.9570
L23.4261 22.0779
" />
<path d="M23.4261 22.0779
L23.3052 22.1384
" />
<path d="M24.5147 21.8965
L24.5751 21.8360
" />
<path d="M24.5751 21.8360
L24.6961 21.7755
" />
<path d="M24.6961 21.7755
L24.9985 21.7755
" />
<path d="M24.9985 21.7755
L25.1194 21.8360
" />
<path d="M25.1194 21.8360
L25.1799 21.8965
" />
<path d="M25.1799 21.8965
L25.2404 22.0174
" />
<path d="M25.2404 22.0174
L25.2404 22.1384
" />
<path d="M25.2404 22.1384
L25.1799 22.3198
" />
<path d="M25.1799 22.3198
L24.4542 23.0455
" />
<path d="M24.4542 23.0455
L25.2404 23.0455
" />
</g></g>
<g style="fill:none; 
stroke:#840000; stroke-width:0.1524; stroke-opacity:1; 
stroke-linecap:round; stroke-linejoin:round;">
<path d="M21.7933 26.0030
L25.6033 26.0030
" />
</g>
<g style="fill:none; 
stroke:#006464; stroke-width:0.1524; stroke-opacity:1; 
stroke-linecap:round; stroke-linejoin:round;">
<text x="21.2853" y="26.6380"
textLength="2.6827" font-size="1.6933" lengthAdjust="spacingAndGlyphs"
text-anchor="end" opacity="0" stroke-opacity="0">D5</text>
<g class="stroked-text"><desc>D5</desc>
<path d="M19.0079 26.5825
L19.0079 25.3125
" />
<path d="M19.0079 25.3125
L19.3103 25.3125
" />
<path d="M19.3103 25.3125
L19.4917 25.3730
" />
<path d="M19.4917 25.3730
L19.6127 25.4940
" />
<path d="M19.6127 25.4940
L19.6732 25.6149
" />
<path d="M19.6732 25.6149
L19.7336 25.8568
" />
<path d="M19.7336 25.8568
L19.7336 26.0382
" />
<path d="M19.7336 26.0382
L19.6732 26.2801
" />
<path d="M19.6732 26.2801
L19.6127 26.4011
" />
<path d="M19.6127 26.4011
L19.4917 26.5221
" />
<path d="M19.4917 26.5221
L19.3103 26.5825
" />
<path d="M19.3103 26.5825
L19.0079 26.5825
" />
<path d="M20.8827 25.3125
L20.2779 25.3125
" />
<path d="M20.2779 25.3125
L20.2175 25.9173
" />
<path d="M20.2175 25.9173
L20.2779 25.8568
" />
<path d="M20.2779 25.8568
L20.3989 25.7963
" />
<path d="M20.3989 25.7963
L20.7013 25.7963
" />
<path d="M20.7013 25.7963
L20.8222 25.8568
" />
<path d="M20.8222 25.8568
L20.8827 25.9173
" />
<path d="M20.8827 25.9173
L20.9432 26.0382
" />
<path d="M20.9432 26.0382
L20.9432 26.3406
" />
<path d="M20.9432 26.3406
L20.8827 26.4616
" />
<path d="M20.8827 26.4616
L20.8222 26.5221
" />
<path d="M20.8222 26.5221
L20.7013 26.5825
" />
<path d="M20.7013 26.5825
L20.3989 26.5825
" />
<path d="M20.3989 26.5825
L20.2779 26.5221
" />
<path d="M20.2779 26.5221
L20.2175 26.4616
" />
</g></g>
<g style="fill:none; 
stroke:#A90000; stroke-width:0.1524; stroke-opacity:1; 
stroke-linecap:round; stroke-linejoin:round;">
<text x="23.6983" y="25.7490"
textLength="3.7712" font-size="1.6933" lengthAdjust="spacingAndGlyphs"
text-anchor="middle" opacity="0" stroke-opacity="0">a12</text>
<g class="stroked-text"><desc>a12</desc>
<path d="M22.7609 25.5855
L22.7609 24.9203
" />
<path d="M22.7609 24.9203
L22.7004 24.7993
" />
<path d="M22.7004 24.7993
L22.5795 24.7389
" />
<path d="M22.5795 24.7389
L22.3376 24.7389
" />
<path d="M22.3376 24.7389
L22.2166 24.7993
" />
<path d="M22.7609 25.5251
L22.6400 25.5855
" />
<path d="M22.6400 25.5855
L22.3376 25.5855
" />
<path d="M22.3376 25.5855
L22.2166 25.5251
" />
<path d="M22.2166 25.5251
L22.1562 25.4041
" />
<path d="M22.1562 25.4041
L22.1562 25.2831
" />
<path d="M22.1562 25.2831
L22.2166 25.1622
" />
<path d="M22.2166 25.1622
L22.3376 25.1017
" />
<path d="M22.3376 25.1017
L22.6400 25.1017
" />
<path d="M22.6400 25.1017
L22.7609 25.0412
" />
<path d="M24.0309 25.5855
L23.3052 25.5855
" />
<path d="M23.6680 25.5855
L23.6680 24.3155
" />
<path d="M23.6680 24.3155
L23.5471 24.4970
" />
<path d="M23.5471 24.4970
L23.4261 24.6179
" />
<path d="M23.4261 24.6179
L23.3052 24.6784
" />
<path d="M24.5147 24.4365
L24.5751 24.3760
" />
<path d="M24.5751 24.3760
L24.6961 24.3155
" />
<path d="M24.6961 24.3155
L24.9985 24.3155
" />
<path d="M24.9985 24.3155
L25.1194 24.3760
" />
<path d="M25.1194 24.3760
L25.1799 24.4365
" />
<path d="M25.1799 24.4365
L25.2404 24.5574
" />
<path d="M25.2404 24.5574
L25.2404 24.6784
" />
<path d="M25.2404 24.6784
L25.1799 24.8598
" />
<path d="M25.1799 24.8598
L24.4542 25.5855
" />
<path d="M24.4542 25.5855
L25.2404 25.5855
" />
</g></g>
<g style="fill:none; 
stroke:#840000; stroke-width:0.1524; stroke-opacity:1; 
stroke-linecap:round; stroke-linejoin:round;">
<path d="M21.7933 28.5430
L25.6033 28.5430
" />
</g>
<g style="fill:none; 
stroke:#006464; stroke-width:0.1524; stroke-opacity:1; 
stroke-linecap:round; stroke-linejoin:round;">
<text x="21.2853" y="29.1780"
textLength="2.6827" font-size="1.6933" lengthAdjust="spacingAndGlyphs"
text-anchor="end" opacity="0" stroke-opacity="0">D6</text>
<g class="stroked-text"><desc>D6</desc>
<path d="M19.0079 29.1225
L19.0079 27.8525
" />
<path d="M19.0079 27.8525
L19.3103 27.8525
" />
<path d="M19.3103 27.8525
L19.4917 27.9130
" />
<path d="M19.4917 27.9130
L19.6127 28.0340
" />
<path d="M19.6127 28.0340
L19.6732 28.1549
" />
<path d="M19.6732 28.1549
L19.7336 28.3968
" />
<path d="M19.7336 28.3968
L19.7336 28.5782
" />
<path d="M19.7336 28.5782
L19.6732 28.8201
" />
<path d="M19.6732 28.8201
L19.6127 28.9411
" />
<path d="M19.6127 28.9411
L19.4917 29.0621
" />
<path d="M19.4917 29.0621
L19.3103 29.1225
" />
<path d="M19.3103 29.1225
L19.0079 29.1225
" />
<path d="M20.8222 27.8525
L20.5803 27.8525
" />
<path d="M20.5803 27.8525
L20.4594 27.9130
" />
<path d="M20.4594 27.9130
L20.3989 27.9735
" />
<path d="M20.3989 27.9735
L20.2779 28.1549
" />
<path d="M20.2779 28.1549
L20.2175 28.3968
" />
<path d="M20.2175 28.3968
L20.2175 28.8806
" />
<path d="M20.2175 28.8806
L20.2779 29.0016
" />
<path d="M20.2779 29.0016
L20.3384 29.0621
" />
<path d="M20.3384 29.0621
L20.4594 29.1225
" />
<path d="M20.4594 29.1225
L20.7013 29.1225
" />
<path d="M20.7013 29.1225
L20.8222 29.0621
" />
<path d="M20.8222 29.0621
L20.8827 29.0016
" />
<path d="M20.8827 29.0016
L20.9432 28.8806
" />
<path d="M20.9432 28.8806
L20.9432 28.5782
" />
<path d="M20.9432 28.5782
L20.8827 28.4573
" />
<path d="M20.8827 28.4573
L20.8222 28.3968
" />
<path d="M20.8222 28.3968
L20.7013 28.3363
" />
<path d="M20.7013 28.3363
L20.4594 28.3363
" />
<path d="M20.4594 28.3363
L20.3384 28.3968
" />
<path d="M20.3384 28.3968
L20.2779 28.4573
" />
<path d="M20.2779 28.4573
L20.2175 28.5782
" />
</g></g>
<g style="fill:none; 
stroke:#A90000; stroke-width:0.1524; stroke-opacity:1; 
stroke-linecap:round; stroke-linejoin:round;">
<text x="23.6983" y="28.2890"
textLength="3.7712" font-size="1.6933" lengthAdjust="spacingAndGlyphs"
text-anchor="middle" opacity="0" stroke-opacity="0">b11</text>
<g class="stroked-text"><desc>b11</desc>
<path d="M22.2166 28.1255
L22.2166 26.8555
" />
<path d="M22.2166 27.3393
L22.3376 27.2789
" />
<path d="M22.3376 27.2789
L22.5795 27.2789
" />
<path d="M22.5795 27.2789
L22.7004 27.3393
" />
<path d="M22.7004 27.3393
L22.7609 27.3998
" />
<path d="M22.7609 27.3998
L22.8214 27.5208
" />
<path d="M22.8214 27.5208
L22.8214 27.8836
" />
<path d="M22.8214 27.8836
L22.7609 28.0046
" />
<path d="M22.7609 28.0046
L22.7004 28.0651
" />
<path d="M22.7004 28.0651
L22.5795 28.1255
" />
<path d="M22.5795 28.1255
L22.3376 28.1255
" />
<path d="M22.3376 28.1255
L22.2166 28.0651
" />
<path d="M24.0309 28.1255
L23.3052 28.1255
" />
<path d="M23.6680 28.1255
L23.6680 26.8555
" />
<path d="M23.6680 26.8555
L23.5471 27.0370
" />
<path d="M23.5471 27.0370
L23.4261 27.1579
" />
<path d="M23.4261 27.1579
L23.3052 27.2184
" />
<path d="M25.2404 28.1255
L24.5147 28.1255
" />
<path d="M24.8775 28.1255
L24.8775 26.8555
" />
<path d="M24.8775 26.8555
L24.7566 27.0370
" />
<path d="M24.7566 27.0370
L24.6356 27.1579
" />
<path d="M24.6356 27.1579
L24.5147 27.2184
" />
</g></g>
<g style="fill:none; 
stroke:#840000; stroke-width:0.1524; stroke-opacity:1; 
stroke-linecap:round; stroke-linejoin:round;">
<path d="M21.7933 31.0830
L25.6033 31.0830
" />
</g>
<g style="fill:none; 
stroke:#006464; stroke-width:0.1524; stroke-opacity:1; 
stroke-linecap:round; stroke-linejoin:round;">
<text x="21.2853" y="31.7180"
textLength="2.6827" font-size="1.6933" lengthAdjust="spacingAndGlyphs"
text-anchor="end" opacity="0" stroke-opacity="0">D7</text>
<g class="stroked-text"><desc>D7</desc>
<path d="M19.0079 31.6625
L19.0079 30.3925
" />
<path d="M19.0079 30.3925
L19.3103 30.3925
" />
<path d="M19.3103 30.3925
L19.4917 30.4530
" />
<path d="M19.4917 30.4530
L19.6127 30.5740
" />
<path d="M19.6127 30.5740
L19.6732 30.6949
" />
<path d="M19.6732 30.6949
L19.7336 30.9368
" />
<path d="M19.7336 30.9368
L19.7336 31.1182
" />
<path d="M19.7336 31.1182
L19.6732 31.3601
" />
<path d="M19.6732 31.3601
L19.6127 31.4811
" />
<path d="M19.6127 31.4811
L19.4917 31.6021
" />
<path d="M19.4917 31.6021
L19.3103 31.6625
" />
<path d="M19.3103 31.6625
L19.0079 31.6625
" />
<path d="M20.1570 30.3925
L21.0036 30.3925
" />
<path d="M21.0036 30.3925
L20.4594 31.6625
" />
</g></g>
<g style="fill:none; 
stroke:#A90000; stroke-width:0.1524; stroke-opacity:1; 
stroke-linecap:round; stroke-linejoin:round;">
<text x="23.6983" y="30.8290"
textLength="3.7712" font-size="1.6933" lengthAdjust="spacingAndGlyphs"
text-anchor="middle" opacity="0" stroke-opacity="0">a11</text>
<g class="stroked-text"><desc>a11</desc>
<path d="M22.7609 30.6655
L22.7609 30.0003
" />
<path d="M22.7609 30.0003
L22.7004 29.8793
" />
<path d="M22.7004 29.8793
L22.5795 29.8189
" />
<path d="M22.5795 29.8189
L22.3376 29.8189
" />
<path d="M22.3376 29.8189
L22.2166 29.8793
" />
<path d="M22.7609 30.6051
L22.6400 30.6655
" />
<path d="M22.6400 30.6655
L22.3376 30.6655
" />
<path d="M22.3376 30.6655
L22.2166 30.6051
" />
<path d="M22.2166 30.6051
L22.1562 30.4841
" />
<path d="M22.1562 30.4841
L22.1562 30.3631
" />
<path d="M22.1562 30.3631
L22.2166 30.2422
" />
<path d="M22.2166 30.2422
L22.3376 30.1817
" />
<path d="M22.3376 30.1817
L22.6400 30.1817
" />
<path d="M22.6400 30.1817
L22.7609 30.1212
" />
<path d="M24.0309 30.6655
L23.3052 30.6655
" />
<path d="M23.6680 30.6655
L23.6680 29.3955
" />
<path d="M23.6680 29.3955
L23.5471 29.5770
" />
<path d="M23.5471 29.5770
L23.4261 29.6979
" />
<path d="M23.4261 29.6979
L23.3052 29.7584
" />
<path d="M25.2404 30.6655
L24.5147 30.6655
" />
<path d="M24.8775 30.6655
L24.8775 29.3955
" />
<path d="M24.8775 29.3955
L24.7566 29.5770
" />
<path d="M24.7566 29.5770
L24.6356 29.6979
" />
<path d="M24.6356 29.6979
L24.5147 29.7584
" />
</g></g>
<g style="fill:none; 
stroke:#840000; stroke-width:0.1524; stroke-opacity:1; 
stroke-linecap:round; stroke-linejoin:round;">
<path d="M21.7933 37.4330
L25.6033 37.4330
" />
</g>
<g style="fill:none; 
stroke:#006464; stroke-width:0.1524; stroke-opacity:1; 
stroke-linecap:round; stroke-linejoin:round;">
<text x="21.2853" y="38.0680"
textLength="7.7022" font-size="1.6933" lengthAdjust="spacingAndGlyphs"
text-anchor="end" opacity="0" stroke-opacity="0">~{ROM_CS}</text>
<g class="stroked-text"><desc>~{ROM_CS}</desc>
<path d="M14.7141 38.0125
L14.2908 37.4078
" />
<path d="M13.9884 38.0125
L13.9884 36.7425
" />
<path d="M13.9884 36.7425
L14.4722 36.7425
" />
<path d="M14.4722 36.7425
L14.5932 36.8030
" />
<path d="M14.5932 36.8030
L14.6537 36.8635
" />
<path d="M14.6537 36.8635
L14.7141 36.9844
" />
<path d="M14.7141 36.9844
L14.7141 37.1659
" />
<path d="M14.7141 37.1659
L14.6537 37.2868
" />
<path d="M14.6537 37.2868
L14.5932 37.3473
" />
<path d="M14.5932 37.3473
L14.4722 37.4078
" />
<path d="M14.4722 37.4078
L13.9884 37.4078
" />
<path d="M15.5003 36.7425
L15.7422 36.7425
" />
<path d="M15.7422 36.7425
L15.8632 36.8030
" />
<path d="M15.8632 36.8030
L15.9841 36.9240
" />
<path d="M15.9841 36.9240
L16.0446 37.1659
" />
<path d="M16.0446 37.1659
L16.0446 37.5892
" />
<path d="M16.0446 37.5892
L15.9841 37.8311
" />
<path d="M15.9841 37.8311
L15.8632 37.9521
" />
<path d="M15.8632 37.9521
L15.7422 38.0125
" />
<path d="M15.7422 38.0125
L15.5003 38.0125
" />
<path d="M15.5003 38.0125
L15.3794 37.9521
" />
<path d="M15.3794 37.9521
L15.2584 37.8311
" />
<path d="M15.2584 37.8311
L15.1980 37.5892
" />
<path d="M15.1980 37.5892
L15.1980 37.1659
" />
<path d="M15.1980 37.1659
L15.2584 36.9240
" />
<path d="M15.2584 36.9240
L15.3794 36.8030
" />
<path d="M15.3794 36.8030
L15.5003 36.7425
" />
<path d="M16.5889 38.0125
L16.5889 36.7425
" />
<path d="M16.5889 36.7425
L17.0123 37.6497
" />
<path d="M17.0123 37.6497
L17.4356 36.7425
" />
<path d="M17.4356 36.7425
L17.4356 38.0125
" />
<path d="M17.7380 38.1335
L18.7056 38.1335
" />
<path d="M19.7336 37.8916
L19.6732 37.9521
" />
<path d="M19.6732 37.9521
L19.4917 38.0125
" />
<path d="M19.4917 38.0125
L19.3708 38.0125
" />
<path d="M19.3708 38.0125
L19.1894 37.9521
" />
<path d="M19.1894 37.9521
L19.0684 37.8311
" />
<path d="M19.0684 37.8311
L19.0079 37.7101
" />
<path d="M19.0079 37.7101
L18.9475 37.4682
" />
<path d="M18.9475 37.4682
L18.9475 37.2868
" />
<path d="M18.9475 37.2868
L19.0079 37.0449
" />
<path d="M19.0079 37.0449
L19.0684 36.9240
" />
<path d="M19.0684 36.9240
L19.1894 36.8030
" />
<path d="M19.1894 36.8030
L19.3708 36.7425
" />
<path d="M19.3708 36.7425
L19.4917 36.7425
" />
<path d="M19.4917 36.7425
L19.6732 36.8030
" />
<path d="M19.6732 36.8030
L19.7336 36.8635
" />
<path d="M20.2175 37.9521
L20.3989 38.0125
" />
<path d="M20.3989 38.0125
L20.7013 38.0125
" />
<path d="M20.7013 38.0125
L20.8222 37.9521
" />
<path d="M20.8222 37.9521
L20.8827 37.8916
" />
<path d="M20.8827 37.8916
L20.9432 37.7706
" />
<path d="M20.9432 37.7706
L20.9432 37.6497
" />
<path d="M20.9432 37.6497
L20.8827 37.5287
" />
<path d="M20.8827 37.5287
L20.8222 37.4682
" />
<path d="M20.8222 37.4682
L20.7013 37.4078
" />
<path d="M20.7013 37.4078
L20.4594 37.3473
" />
<path d="M20.4594 37.3473
L20.3384 37.2868
" />
<path d="M20.3384 37.2868
L20.2779 37.2263
" />
<path d="M20.2779 37.2263
L20.2175 37.1054
" />
<path d="M20.2175 37.1054
L20.2175 36.9844
" />
<path d="M20.2175 36.9844
L20.2779 36.8635
" />
<path d="M20.2779 36.8635
L20.3384 36.8030
" />
<path d="M20.3384 36.8030
L20.4594 36.7425
" />
<path d="M20.4594 36.7425
L20.7617 36.7425
" />
<path d="M20.7617 36.7425
L20.9432 36.8030
" />
<path d="M13.8131 36.3900
L21.0581 36.3900
" />
</g></g>
<g style="fill:none; 
stroke:#A90000; stroke-width:0.1524; stroke-opacity:1; 
stroke-linecap:round; stroke-linejoin:round;">
<text x="23.6983" y="37.1790"
textLength="2.5617" font-size="1.6933" lengthAdjust="spacingAndGlyphs"
text-anchor="middle" opacity="0" stroke-opacity="0">b1</text>
<g class="stroked-text"><desc>b1</desc>
<path d="M22.8214 37.0155
L22.8214 35.7455
" />
<path d="M22.8214 36.2293
L22.9424 36.1689
" />
<path d="M22.9424 36.1689
L23.1843 36.1689
" />
<path d="M23.1843 36.1689
L23.3052 36.2293
" />
<path d="M23.3052 36.2293
L23.3657 36.2898
" />
<path d="M23.3657 36.2898
L23.4262 36.4108
" />
<path d="M23.4262 36.4108
L23.4262 36.7736
" />
<path d="M23.4262 36.7736
L23.3657 36.8946
" />
<path d="M23.3657 36.8946
L23.3052 36.9551
" />
<path d="M23.3052 36.9551
L23.1843 37.0155
" />
<path d="M23.1843 37.0155
L22.9424 37.0155
" />
<path d="M22.9424 37.0155
L22.8214 36.9551
" />
<path d="M24.6357 37.0155
L23.9100 37.0155
" />
<path d="M24.2728 37.0155
L24.2728 35.7455
" />
<path d="M24.2728 35.7455
L24.1519 35.9270
" />
<path d="M24.1519 35.9270
L24.0309 36.0479
" />
<path d="M24.0309 36.0479
L23.9100 36.1084
" />
</g></g>
<g style="fill:none; 
stroke:#840000; stroke-width:0.1524; stroke-opacity:1; 
stroke-linecap:round; stroke-linejoin:round;">
<path d="M21.7933 43.7830
L25.6033 43.7830
" />
<path d="M25.2223 43.4020
L25.9843 44.1640
" />
<path d="M25.9843 43.4020
L25.2223 44.1640
" />
</g>
<g style="fill:none; 
stroke:#006464; stroke-width:0.1524; stroke-opacity:1; 
stroke-linecap:round; stroke-linejoin:round;">
<text x="21.2853" y="44.4180"
textLength="4.1342" font-size="1.6933" lengthAdjust="spacingAndGlyphs"
text-anchor="end" opacity="0" stroke-opacity="0">N/C</text>
<g class="stroked-text"><desc>N/C</desc>
<path d="M17.5564 44.3625
L17.5564 43.0925
" />
<path d="M17.5564 43.0925
L18.2821 44.3625
" />
<path d="M18.2821 44.3625
L18.2821 43.0925
" />
<path d="M19.7941 43.0321
L18.7055 44.6649
" />
<path d="M20.9431 44.2416
L20.8827 44.3021
" />
<path d="M20.8827 44.3021
L20.7012 44.3625
" />
<path d="M20.7012 44.3625
L20.5803 44.3625
" />
<path d="M20.5803 44.3625
L20.3989 44.3021
" />
<path d="M20.3989 44.3021
L20.2779 44.1811
" />
<path d="M20.2779 44.1811
L20.2174 44.0601
" />
<path d="M20.2174 44.0601
L20.1570 43.8182
" />
<path d="M20.1570 43.8182
L20.1570 43.6368
" />
<path d="M20.1570 43.6368
L20.2174 43.3949
" />
<path d="M20.2174 43.3949
L20.2779 43.2740
" />
<path d="M20.2779 43.2740
L20.3989 43.1530
" />
<path d="M20.3989 43.1530
L20.5803 43.0925
" />
<path d="M20.5803 43.0925
L20.7012 43.0925
" />
<path d="M20.7012 43.0925
L20.8827 43.1530
" />
<path d="M20.8827 43.1530
L20.9431 43.2135
" />
</g></g>
<g style="fill:none; 
stroke:#A90000; stroke-width:0.1524; stroke-opacity:1; 
stroke-linecap:round; stroke-linejoin:round;">
<text x="23.6983" y="43.5290"
textLength="2.5617" font-size="1.6933" lengthAdjust="spacingAndGlyphs"
text-anchor="middle" opacity="0" stroke-opacity="0">a1</text>
<g class="stroked-text"><desc>a1</desc>
<path d="M23.3657 43.3655
L23.3657 42.7003
" />
<path d="M23.3657 42.7003
L23.3052 42.5793
" />
<path d="M23.3052 42.5793
L23.1843 42.5189
" />
<path d="M23.1843 42.5189
L22.9424 42.5189
" />
<path d="M22.9424 42.5189
L22.8214 42.5793
" />
<path d="M23.3657 43.3051
L23.2448 43.3655
" />
<path d="M23.2448 43.3655
L22.9424 43.3655
" />
<path d="M22.9424 43.3655
L22.8214 43.3051
" />
<path d="M22.8214 43.3051
L22.7610 43.1841
" />
<path d="M22.7610 43.1841
L22.7610 43.0631
" />
<path d="M22.7610 43.0631
L22.8214 42.9422
" />
<path d="M22.8214 42.9422
L22.9424 42.8817
" />
<path d="M22.9424 42.8817
L23.2448 42.8817
" />
<path d="M23.2448 42.8817
L23.3657 42.8212
" />
<path d="M24.6357 43.3655
L23.9100 43.3655
" />
<path d="M24.2728 43.3655
L24.2728 42.0955
" />
<path d="M24.2728 42.0955
L24.1519 42.2770
" />
<path d="M24.1519 42.2770
L24.0309 42.3979
" />
<path d="M24.0309 42.3979
L23.9100 42.4584
" />
</g></g>
<g style="fill:none; 
stroke:#840000; stroke-width:0.1524; stroke-opacity:1; 
stroke-linecap:round; stroke-linejoin:round;">
<path d="M21.7933 46.3230
L25.6033 46.3230
" />
<path d="M25.2223 45.9420
L25.9843 46.7040
" />
<path d="M25.9843 45.9420
L25.2223 46.7040
" />
</g>
<g style="fill:none; 
stroke:#006464; stroke-width:0.1524; stroke-opacity:1; 
stroke-linecap:round; stroke-linejoin:round;">
<text x="21.2853" y="46.9580"
textLength="4.1342" font-size="1.6933" lengthAdjust="spacingAndGlyphs"
text-anchor="end" opacity="0" stroke-opacity="0">N/C</text>
<g class="stroked-text"><desc>N/C</desc>
<path d="M17.5564 46.9025
L17.5564 45.6325
" />
<path d="M17.5564 45.6325
L18.2821 46.9025
" />
<path d="M18.2821 46.9025
L18.2821 45.6325
" />
<path d="M19.7941 45.5721
L18.7055 47.2049
" />
<path d="M20.9431 46.7816
L20.8827 46.8421
" />
<path d="M20.8827 46.8421
L20.7012 46.9025
" />
<path d="M20.7012 46.9025
L20.5803 46.9025
" />
<path d="M20.5803 46.9025
L20.3989 46.8421
" />
<path d="M20.3989 46.8421
L20.2779 46.7211
" />
<path d="M20.2779 46.7211
L20.2174 46.6001
" />
<path d="M20.2174 46.6001
L20.1570 46.3582
" />
<path d="M20.1570 46.3582
L20.1570 46.1768
" />
<path d="M20.1570 46.1768
L20.2174 45.9349
" />
<path d="M20.2174 45.9349
L20.2779 45.8140
" />
<path d="M20.2779 45.8140
L20.3989 45.6930
" />
<path d="M20.3989 45.6930
L20.5803 45.6325
" />
<path d="M20.5803 45.6325
L20.7012 45.6325
" />
<path d="M20.7012 45.6325
L20.8827 45.6930
" />
<path d="M20.8827 45.6930
L20.9431 45.7535
" />
</g></g>
<g style="fill:none; 
stroke:#A90000; stroke-width:0.1524; stroke-opacity:1; 
stroke-linecap:round; stroke-linejoin:round;">
<text x="23.6983" y="46.0690"
textLength="2.5617" font-size="1.6933" lengthAdjust="spacingAndGlyphs"
text-anchor="middle" opacity="0" stroke-opacity="0">a8</text>
<g class="stroked-text"><desc>a8</desc>
<path d="M23.3657 45.9055
L23.3657 45.2403
" />
<path d="M23.3657 45.2403
L23.3052 45.1193
" />
<path d="M23.3052 45.1193
L23.1843 45.0589
" />
<path d="M23.1843 45.0589
L22.9424 45.0589
" />
<path d="M22.9424 45.0589
L22.8214 45.1193
" />
<path d="M23.3657 45.8451
L23.2448 45.9055
" />
<path d="M23.2448 45.9055
L22.9424 45.9055
" />
<path d="M22.9424 45.9055
L22.8214 45.8451
" />
<path d="M22.8214 45.8451
L22.7610 45.7241
" />
<path d="M22.7610 45.7241
L22.7610 45.6031
" />
<path d="M22.7610 45.6031
L22.8214 45.4822
" />
<path d="M22.8214 45.4822
L22.9424 45.4217
" />
<path d="M22.9424 45.4217
L23.2448 45.4217
" />
<path d="M23.2448 45.4217
L23.3657 45.3612
" />
<path d="M24.1519 45.1798
L24.0309 45.1193
" />
<path d="M24.0309 45.1193
L23.9704 45.0589
" />
<path d="M23.9704 45.0589
L23.9100 44.9379
" />
<path d="M23.9100 44.9379
L23.9100 44.8774
" />
<path d="M23.9100 44.8774
L23.9704 44.7565
" />
<path d="M23.9704 44.7565
L24.0309 44.6960
" />
<path d="M24.0309 44.6960
L24.1519 44.6355
" />
<path d="M24.1519 44.6355
L24.3938 44.6355
" />
<path d="M24.3938 44.6355
L24.5147 44.6960
" />
<path d="M24.5147 44.6960
L24.5752 44.7565
" />
<path d="M24.5752 44.7565
L24.6357 44.8774
" />
<path d="M24.6357 44.8774
L24.6357 44.9379
" />
<path d="M24.6357 44.9379
L24.5752 45.0589
" />
<path d="M24.5752 45.0589
L24.5147 45.1193
" />
<path d="M24.5147 45.1193
L24.3938 45.1798
" />
<path d="M24.3938 45.1798
L24.1519 45.1798
" />
<path d="M24.1519 45.1798
L24.0309 45.2403
" />
<path d="M24.0309 45.2403
L23.9704 45.3008
" />
<path d="M23.9704 45.3008
L23.9100 45.4217
" />
<path d="M23.9100 45.4217
L23.9100 45.6636
" />
<path d="M23.9100 45.6636
L23.9704 45.7846
" />
<path d="M23.9704 45.7846
L24.0309 45.8451
" />
<path d="M24.0309 45.8451
L24.1519 45.9055
" />
<path d="M24.1519 45.9055
L24.3938 45.9055
" />
<path d="M24.3938 45.9055
L24.5147 45.8451
" />
<path d="M24.5147 45.8451
L24.5752 45.7846
" />
<path d="M24.5752 45.7846
L24.6357 45.6636
" />
<path d="M24.6357 45.6636
L24.6357 45.4217
" />
<path d="M24.6357 45.4217
L24.5752 45.3008
" />
<path d="M24.5752 45.3008
L24.5147 45.2403
" />
<path d="M24.5147 45.2403
L24.3938 45.1798
" />
</g></g>
<g style="fill:none; 
stroke:#006464; stroke-width:0.1524; stroke-opacity:1; 
stroke-linecap:round; stroke-linejoin:round;">
<text x="-1.0160" y="-20.4470"
textLength="2.2594" font-size="1.6933" lengthAdjust="spacingAndGlyphs"
text-anchor="middle" opacity="0" stroke-opacity="0">J?</text>
<g class="stroked-text"><desc>J?</desc>
<path d="M-1.3788 -21.7724
L-1.3788 -20.8652
" />
<path d="M-1.3788 -20.8652
L-1.4393 -20.6838
" />
<path d="M-1.4393 -20.6838
L-1.5602 -20.5629
" />
<path d="M-1.5602 -20.5629
L-1.7417 -20.5024
" />
<path d="M-1.7417 -20.5024
L-1.8626 -20.5024
" />
<path d="M-0.5926 -20.6233
L-0.5322 -20.5629
" />
<path d="M-0.5322 -20.5629
L-0.5926 -20.5024
" />
<path d="M-0.5926 -20.5024
L-0.6531 -20.5629
" />
<path d="M-0.6531 -20.5629
L-0.5926 -20.6233
" />
<path d="M-0.5926 -20.6233
L-0.5926 -20.5024
" />
<path d="M-0.8345 -21.7119
L-0.7136 -21.7724
" />
<path d="M-0.7136 -21.7724
L-0.4112 -21.7724
" />
<path d="M-0.4112 -21.7724
L-0.2903 -21.7119
" />
<path d="M-0.2903 -21.7119
L-0.2298 -21.5909
" />
<path d="M-0.2298 -21.5909
L-0.2298 -21.4700
" />
<path d="M-0.2298 -21.4700
L-0.2903 -21.3490
" />
<path d="M-0.2903 -21.3490
L-0.3507 -21.2886
" />
<path d="M-0.3507 -21.2886
L-0.4717 -21.2281
" />
<path d="M-0.4717 -21.2281
L-0.5322 -21.1676
" />
<path d="M-0.5322 -21.1676
L-0.5926 -21.0467
" />
<path d="M-0.5926 -21.0467
L-0.5926 -20.9862
" />
</g><text x="0.2540" y="-18.4150"
textLength="16.8944" font-size="1.6933" lengthAdjust="spacingAndGlyphs"
text-anchor="middle" opacity="0" stroke-opacity="0">EXL100 Cartridge</text>
<g class="stroked-text"><desc>EXL100 Cartridge</desc>
<path d="M-7.7892 -19.1356
L-7.3658 -19.1356
" />
<path d="M-7.1844 -18.4704
L-7.7892 -18.4704
" />
<path d="M-7.7892 -18.4704
L-7.7892 -19.7404
" />
<path d="M-7.7892 -19.7404
L-7.1844 -19.7404
" />
<path d="M-6.7611 -19.7404
L-5.9145 -18.4704
" />
<path d="M-5.9145 -19.7404
L-6.7611 -18.4704
" />
<path d="M-4.8259 -18.4704
L-5.4307 -18.4704
" />
<path d="M-5.4307 -18.4704
L-5.4307 -19.7404
" />
<path d="M-3.7373 -18.4704
L-4.4630 -18.4704
" />
<path d="M-4.1002 -18.4704
L-4.1002 -19.7404
" />
<path d="M-4.1002 -19.7404
L-4.2211 -19.5589
" />
<path d="M-4.2211 -19.5589
L-4.3421 -19.4380
" />
<path d="M-4.3421 -19.4380
L-4.4630 -19.3775
" />
<path d="M-2.9512 -19.7404
L-2.8302 -19.7404
" />
<path d="M-2.8302 -19.7404
L-2.7093 -19.6799
" />
<path d="M-2.7093 -19.6799
L-2.6488 -19.6194
" />
<path d="M-2.6488 -19.6194
L-2.5883 -19.4985
" />
<path d="M-2.5883 -19.4985
L-2.5278 -19.2566
" />
<path d="M-2.5278 -19.2566
L-2.5278 -18.9542
" />
<path d="M-2.5278 -18.9542
L-2.5883 -18.7123
" />
<path d="M-2.5883 -18.7123
L-2.6488 -18.5913
" />
<path d="M-2.6488 -18.5913
L-2.7093 -18.5309
" />
<path d="M-2.7093 -18.5309
L-2.8302 -18.4704
" />
<path d="M-2.8302 -18.4704
L-2.9512 -18.4704
" />
<path d="M-2.9512 -18.4704
L-3.0721 -18.5309
" />
<path d="M-3.0721 -18.5309
L-3.1326 -18.5913
" />
<path d="M-3.1326 -18.5913
L-3.1931 -18.7123
" />
<path d="M-3.1931 -18.7123
L-3.2535 -18.9542
" />
<path d="M-3.2535 -18.9542
L-3.2535 -19.2566
" />
<path d="M-3.2535 -19.2566
L-3.1931 -19.4985
" />
<path d="M-3.1931 -19.4985
L-3.1326 -19.6194
" />
<path d="M-3.1326 -19.6194
L-3.0721 -19.6799
" />
<path d="M-3.0721 -19.6799
L-2.9512 -19.7404
" />
<path d="M-1.7417 -19.7404
L-1.6207 -19.7404
" />
<path d="M-1.6207 -19.7404
L-1.4998 -19.6799
" />
<path d="M-1.4998 -19.6799
L-1.4393 -19.6194
" />
<path d="M-1.4393 -19.6194
L-1.3788 -19.4985
" />
<path d="M-1.3788 -19.4985
L-1.3183 -19.2566
" />
<path d="M-1.3183 -19.2566
L-1.3183 -18.9542
" />
<path d="M-1.3183 -18.9542
L-1.3788 -18.7123
" />
<path d="M-1.3788 -18.7123
L-1.4393 -18.5913
" />
<path d="M-1.4393 -18.5913
L-1.4998 -18.5309
" />
<path d="M-1.4998 -18.5309
L-1.6207 -18.4704
" />
<path d="M-1.6207 -18.4704
L-1.7417 -18.4704
" />
<path d="M-1.7417 -18.4704
L-1.8626 -18.5309
" />
<path d="M-1.8626 -18.5309
L-1.9231 -18.5913
" />
<path d="M-1.9231 -18.5913
L-1.9836 -18.7123
" />
<path d="M-1.9836 -18.7123
L-2.0440 -18.9542
" />
<path d="M-2.0440 -18.9542
L-2.0440 -19.2566
" />
<path d="M-2.0440 -19.2566
L-1.9836 -19.4985
" />
<path d="M-1.9836 -19.4985
L-1.9231 -19.6194
" />
<path d="M-1.9231 -19.6194
L-1.8626 -19.6799
" />
<path d="M-1.8626 -19.6799
L-1.7417 -19.7404
" />
<path d="M0.9191 -18.5913
L0.8587 -18.5309
" />
<path d="M0.8587 -18.5309
L0.6772 -18.4704
" />
<path d="M0.6772 -18.4704
L0.5563 -18.4704
" />
<path d="M0.5563 -18.4704
L0.3749 -18.5309
" />
<path d="M0.3749 -18.5309
L0.2539 -18.6518
" />
<path d="M0.2539 -18.6518
L0.1934 -18.7728
" />
<path d="M0.1934 -18.7728
L0.1330 -19.0147
" />
<path d="M0.1330 -19.0147
L0.1330 -19.1961
" />
<path d="M0.1330 -19.1961
L0.1934 -19.4380
" />
<path d="M0.1934 -19.4380
L0.2539 -19.5589
" />
<path d="M0.2539 -19.5589
L0.3749 -19.6799
" />
<path d="M0.3749 -19.6799
L0.5563 -19.7404
" />
<path d="M0.5563 -19.7404
L0.6772 -19.7404
" />
<path d="M0.6772 -19.7404
L0.8587 -19.6799
" />
<path d="M0.8587 -19.6799
L0.9191 -19.6194
" />
<path d="M2.0077 -18.4704
L2.0077 -19.1356
" />
<path d="M2.0077 -19.1356
L1.9472 -19.2566
" />
<path d="M1.9472 -19.2566
L1.8263 -19.3170
" />
<path d="M1.8263 -19.3170
L1.5844 -19.3170
" />
<path d="M1.5844 -19.3170
L1.4634 -19.2566
" />
<path d="M2.0077 -18.5309
L1.8868 -18.4704
" />
<path d="M1.8868 -18.4704
L1.5844 -18.4704
" />
<path d="M1.5844 -18.4704
L1.4634 -18.5309
" />
<path d="M1.4634 -18.5309
L1.4030 -18.6518
" />
<path d="M1.4030 -18.6518
L1.4030 -18.7728
" />
<path d="M1.4030 -18.7728
L1.4634 -18.8937
" />
<path d="M1.4634 -18.8937
L1.5844 -18.9542
" />
<path d="M1.5844 -18.9542
L1.8868 -18.9542
" />
<path d="M1.8868 -18.9542
L2.0077 -19.0147
" />
<path d="M2.6124 -18.4704
L2.6124 -19.3170
" />
<path d="M2.6124 -19.0751
L2.6729 -19.1961
" />
<path d="M2.6729 -19.1961
L2.7334 -19.2566
" />
<path d="M2.7334 -19.2566
L2.8543 -19.3170
" />
<path d="M2.8543 -19.3170
L2.9753 -19.3170
" />
<path d="M3.2172 -19.3170
L3.7010 -19.3170
" />
<path d="M3.3986 -19.7404
L3.3986 -18.6518
" />
<path d="M3.3986 -18.6518
L3.4591 -18.5309
" />
<path d="M3.4591 -18.5309
L3.5801 -18.4704
" />
<path d="M3.5801 -18.4704
L3.7010 -18.4704
" />
<path d="M4.1243 -18.4704
L4.1243 -19.3170
" />
<path d="M4.1243 -19.0751
L4.1848 -19.1961
" />
<path d="M4.1848 -19.1961
L4.2453 -19.2566
" />
<path d="M4.2453 -19.2566
L4.3662 -19.3170
" />
<path d="M4.3662 -19.3170
L4.4872 -19.3170
" />
<path d="M4.9105 -18.4704
L4.9105 -19.3170
" />
<path d="M4.9105 -19.7404
L4.8501 -19.6799
" />
<path d="M4.8501 -19.6799
L4.9105 -19.6194
" />
<path d="M4.9105 -19.6194
L4.9710 -19.6799
" />
<path d="M4.9710 -19.6799
L4.9105 -19.7404
" />
<path d="M4.9105 -19.7404
L4.9105 -19.6194
" />
<path d="M6.0596 -18.4704
L6.0596 -19.7404
" />
<path d="M6.0596 -18.5309
L5.9387 -18.4704
" />
<path d="M5.9387 -18.4704
L5.6968 -18.4704
" />
<path d="M5.6968 -18.4704
L5.5758 -18.5309
" />
<path d="M5.5758 -18.5309
L5.5153 -18.5913
" />
<path d="M5.5153 -18.5913
L5.4549 -18.7123
" />
<path d="M5.4549 -18.7123
L5.4549 -19.0751
" />
<path d="M5.4549 -19.0751
L5.5153 -19.1961
" />
<path d="M5.5153 -19.1961
L5.5758 -19.2566
" />
<path d="M5.5758 -19.2566
L5.6968 -19.3170
" />
<path d="M5.6968 -19.3170
L5.9387 -19.3170
" />
<path d="M5.9387 -19.3170
L6.0596 -19.2566
" />
<path d="M7.2086 -19.3170
L7.2086 -18.2889
" />
<path d="M7.2086 -18.2889
L7.1481 -18.1680
" />
<path d="M7.1481 -18.1680
L7.0877 -18.1075
" />
<path d="M7.0877 -18.1075
L6.9667 -18.0470
" />
<path d="M6.9667 -18.0470
L6.7853 -18.0470
" />
<path d="M6.7853 -18.0470
L6.6643 -18.1075
" />
<path d="M7.2086 -18.5309
L7.0877 -18.4704
" />
<path d="M7.0877 -18.4704
L6.8458 -18.4704
" />
<path d="M6.8458 -18.4704
L6.7248 -18.5309
" />
<path d="M6.7248 -18.5309
L6.6643 -18.5913
" />
<path d="M6.6643 -18.5913
L6.6039 -18.7123
" />
<path d="M6.6039 -18.7123
L6.6039 -19.0751
" />
<path d="M6.6039 -19.0751
L6.6643 -19.1961
" />
<path d="M6.6643 -19.1961
L6.7248 -19.2566
" />
<path d="M6.7248 -19.2566
L6.8458 -19.3170
" />
<path d="M6.8458 -19.3170
L7.0877 -19.3170
" />
<path d="M7.0877 -19.3170
L7.2086 -19.2566
" />
<path d="M8.2971 -18.5309
L8.1762 -18.4704
" />
<path d="M8.1762 -18.4704
L7.9343 -18.4704
" />
<path d="M7.9343 -18.4704
L7.8133 -18.5309
" />
<path d="M7.8133 -18.5309
L7.7529 -18.6518
" />
<path d="M7.7529 -18.6518
L7.7529 -19.1356
" />
<path d="M7.7529 -19.1356
L7.8133 -19.2566
" />
<path d="M7.8133 -19.2566
L7.9343 -19.3170
" />
<path d="M7.9343 -19.3170
L8.1762 -19.3170
" />
<path d="M8.1762 -19.3170
L8.2971 -19.2566
" />
<path d="M8.2971 -19.2566
L8.3576 -19.1356
" />
<path d="M8.3576 -19.1356
L8.3576 -19.0147
" />
<path d="M8.3576 -19.0147
L7.7529 -18.8937
" />
</g></g> 
</svg>
